<?xml version="1.0" standalone="no"?><!DOCTYPE svg PUBLIC "-//W3C//DTD SVG 1.1//EN" "http://www.w3.org/Graphics/SVG/1.1/DTD/svg11.dtd"><svg t="1603780053233" class="icon" viewBox="0 0 1024 1024" version="1.1" xmlns="http://www.w3.org/2000/svg" p-id="3794" width="32" height="32" xmlns:xlink="http://www.w3.org/1999/xlink"><defs><style type="text/css"></style></defs><path d="M302.592 421.888h421.376c16.384 0 30.208-13.824 30.208-30.72s-13.312-30.72-30.208-30.72H302.592c-16.384 0-30.208 13.824-30.208 30.72 0.512 16.896 13.824 30.72 30.208 30.72z m120.32-213.504h180.736c49.664 0 90.112-40.96 90.112-91.648 0-50.688-40.448-91.648-90.112-91.648H422.912C373.248 25.6 332.8 66.56 332.8 117.248c0 50.176 40.448 91.136 90.112 91.136z m0-121.856h180.736c16.384 0 30.208 13.824 30.208 30.72s-13.312 30.72-30.208 30.72H422.912c-16.384 0-30.208-13.824-30.208-30.72 0.512-16.896 13.824-30.72 30.208-30.72z m331.264 487.936c0-16.896-13.312-30.208-30.208-30.208H302.592c-16.384 0-30.208 13.824-30.208 30.208 0 16.896 13.312 30.72 30.208 30.72h421.376c16.384-0.512 30.208-14.336 30.208-30.72z m90.112-487.936h-90.112v60.928h90.112c16.384 0 30.208 13.824 30.208 30.72v731.648c0 16.896-13.312 30.72-30.208 30.72H182.272c-16.384 0-30.208-13.824-30.208-30.72V178.176c0-16.896 13.312-30.72 30.208-30.72h90.112V86.528H182.272c-49.664 0-90.112 40.96-90.112 91.648v731.648c0 50.688 40.448 91.648 90.112 91.648h662.016c49.664 0 90.112-40.96 90.112-91.648V178.176c0-50.688-40.448-91.648-90.112-91.648z m-541.696 640c-16.384 0-30.208 13.824-30.208 30.72s13.312 30.72 30.208 30.72h240.64c16.384 0 30.208-13.824 30.208-30.72s-13.312-30.72-30.208-30.72h-240.64z" p-id="3795" fill="#303133"></path></svg>