<?xml version="1.0" standalone="no"?><!DOCTYPE svg PUBLIC "-//W3C//DTD SVG 1.1//EN" "http://www.w3.org/Graphics/SVG/1.1/DTD/svg11.dtd"><svg t="1603780349977" class="icon" viewBox="0 0 1024 1024" version="1.1" xmlns="http://www.w3.org/2000/svg" p-id="12322" width="32" height="32" xmlns:xlink="http://www.w3.org/1999/xlink"><defs><style type="text/css"></style></defs><path d="M704.2 191.9c-77.2 0-140 62.8-140 140 0 66.8 47.4 123.8 111.8 137-2.4 38.2-20.6 58.6-54 84.4-40.8 31.4-93.4 40-130.6 46.8-81.4 14.8-125.8 54-145 80V341.5c30-5.6 57.4-21 78-43.8 23.2-25.8 36-59 36-93.8 0-77.2-62.8-140-140-140s-140 62.8-140 140c0 34 12.4 66.6 34.6 92.2 19.8 22.6 46.2 38.2 75.4 44.6v342.7c-29 6.4-55.6 22-75.4 44.6-22.4 25.4-34.8 58-34.8 92 0 77.2 62.8 140 140 140s140-62.8 140-140c0-46.8-23.2-89.8-61.4-115.8 17.2-19.4 49-39.2 102.2-48.8 43.2-7.8 105.2-19.2 154.8-57.6 47.2-36.4 73.4-73 76-128.6C796.4 456.2 844 399 844 331.9c0.2-77.2-62.6-140-139.8-140z m-468.2 12c0-46.4 37.6-84 84-84s84 37.6 84 84-37.6 84-84 84-84-37.6-84-84z m168.1 616.2c0 46.4-37.6 84-84 84s-84-37.6-84-84 37.6-84 84-84 84 37.6 84 84zM704.2 416c-46.4 0-84-37.6-84-84s37.6-84 84-84 84 37.6 84 84-37.6 84-84 84z m0 0" p-id="12323" fill="#303133"></path></svg>