<?xml version="1.0" standalone="no"?><!DOCTYPE svg PUBLIC "-//W3C//DTD SVG 1.1//EN" "http://www.w3.org/Graphics/SVG/1.1/DTD/svg11.dtd"><svg t="1603445343897" class="icon" viewBox="0 0 1024 1024" version="1.1" xmlns="http://www.w3.org/2000/svg" p-id="4721" width="28" height="28" xmlns:xlink="http://www.w3.org/1999/xlink"><defs><style type="text/css"></style></defs><path d="M786.773 629.76c-69.973 0-129.706 35.84-165.546 90.453L411.307 599.04c13.653-27.307 22.186-56.32 22.186-88.747 0-20.48-3.413-39.253-8.533-56.32l218.453-124.586c35.84 39.253 87.04 63.146 143.36 63.146 107.52 0 196.267-88.746 196.267-196.266C981.333 88.747 894.293 0 785.067 0c-107.52 0-194.56 88.747-194.56 196.267 0 20.48 3.413 39.253 8.533 56.32L380.587 377.173c-35.84-39.253-87.04-63.146-143.36-63.146-107.52 1.706-194.56 88.746-194.56 197.973 0 109.227 87.04 197.973 196.266 197.973 44.374 0 85.334-15.36 117.76-40.96v1.707L593.92 807.253c0 6.827-1.707 13.654-1.707 20.48C590.507 935.253 677.547 1024 785.067 1024c107.52 0 196.266-88.747 196.266-196.267 0-109.226-87.04-197.973-194.56-197.973z m0-551.253c64.854 0 117.76 52.906 117.76 117.76s-52.906 117.76-117.76 117.76c-64.853 0-117.76-52.907-117.76-117.76s51.2-117.76 117.76-117.76zM238.933 629.76c-64.853 0-117.76-52.907-117.76-117.76 0-64.853 52.907-117.76 117.76-117.76s117.76 52.907 117.76 117.76c-1.706 64.853-52.906 117.76-117.76 117.76z m547.84 315.733c-64.853 0-117.76-52.906-117.76-117.76 0-64.853 52.907-117.76 117.76-117.76 64.854 0 117.76 52.907 117.76 117.76-1.706 64.854-54.613 117.76-117.76 117.76z" p-id="4722"></path></svg>