<?xml version="1.0" standalone="no"?><!DOCTYPE svg PUBLIC "-//W3C//DTD SVG 1.1//EN" "http://www.w3.org/Graphics/SVG/1.1/DTD/svg11.dtd"><svg t="1604305461268" class="icon" viewBox="0 0 1024 1024" version="1.1" xmlns="http://www.w3.org/2000/svg" p-id="3929" width="48" height="48" xmlns:xlink="http://www.w3.org/1999/xlink"><defs><style type="text/css"></style></defs><path d="M896 320c0-70.4-57.6-128-128-128s-128 57.6-128 128c0 57.6 38.4 108.8 89.6 121.6-6.4 51.2-32 89.6-70.4 108.8-44.8 25.6-102.4 25.6-153.6 25.6-57.6 0-115.2 19.2-153.6 57.6v-384C409.6 236.8 448 185.6 448 128c0-70.4-57.6-128-128-128S192 57.6 192 128c0 57.6 38.4 108.8 96 121.6V768c-57.6 19.2-96 70.4-96 128 0 70.4 57.6 128 128 128s128-57.6 128-128c0-57.6-38.4-108.8-96-121.6v-19.2c19.2-70.4 83.2-115.2 153.6-115.2 51.2 0 121.6 0 185.6-32 57.6-32 89.6-89.6 102.4-160 57.6-12.8 102.4-64 102.4-128zM256 128c0-38.4 25.6-64 64-64s64 25.6 64 64-25.6 64-64 64-64-25.6-64-64z m128 768c0 38.4-25.6 64-64 64s-64-25.6-64-64 25.6-64 64-64 64 25.6 64 64z m384-512c-38.4 0-64-25.6-64-64s25.6-64 64-64 64 25.6 64 64-25.6 64-64 64z" fill="#7E7E7E" p-id="3930"></path></svg>