<?xml version="1.0" standalone="no"?><!DOCTYPE svg PUBLIC "-//W3C//DTD SVG 1.1//EN" "http://www.w3.org/Graphics/SVG/1.1/DTD/svg11.dtd"><svg t="1599447178226" class="icon" viewBox="0 0 1024 1024" version="1.1" xmlns="http://www.w3.org/2000/svg" p-id="2647" width="16" height="16" xmlns:xlink="http://www.w3.org/1999/xlink"><defs><style type="text/css"></style></defs><path d="M988.416 685.738667a270.677333 270.677333 0 0 0-45.226667-55.296 322.645333 322.645333 0 0 0-58.709333-43.946667l36.096-34.645333s51.626667 0 77.482667 24.746666c25.856 24.832 25.856 74.496 25.856 74.496l-35.498667 34.645334m-319.232 310.698666H560.981333V892.586667l12.885334-12.458667c23.722667 10.837333 45.226667 25.344 63.573333 42.922667 18.261333 17.578667 33.877333 38.229333 44.629333 61.013333l-12.885333 12.373333m289.024-282.282666l-244.906667 239.445333a278.442667 278.442667 0 0 0-47.36-58.026667 305.237333 305.237333 0 0 0-61.354666-45.397333L854.357333 614.4c22.613333 10.24 43.093333 24.234667 60.842667 40.789333 17.749333 16.554667 32.768 37.802667 43.008 58.965334m-507.050667 180.906666c-0.512-12.8 80.213333-95.061333 174.933334-187.136H203.605333a40.106667 40.106667 0 0 1-40.96-39.253333 40.106667 40.106667 0 0 1 40.96-39.253333H680.96c7.509333 0 14.506667 2.048 20.48 5.12 82.773333-79.616 163.584-155.136 200.704-189.781334V86.442667C902.229333 38.912 861.866667 0.085333 812.373333 0.085333H90.453333C40.96 0.085333 0.682667 38.912 0.682667 86.442667v850.602666c0 47.530667 40.362667 86.357333 89.941333 86.357334h361.216c0-47.616 0-110.165333-0.597333-128.256m-290.133334-639.573334a40.106667 40.106667 0 0 1 40.96-39.253333h479.573334a40.106667 40.106667 0 0 1 40.96 39.253333 40.106667 40.106667 0 0 1-40.96 39.253334h-479.573334a40.106667 40.106667 0 0 1-40.96-39.253334m1.706667 208.298667a40.106667 40.106667 0 0 1 40.874667-39.253333H680.96a40.106667 40.106667 0 0 1 40.96 39.253333 40.106667 40.106667 0 0 1-40.96 39.338667H203.946667c-22.528 0-41.386667-18.090667-41.386667-39.253334" fill="#2c2c2c" p-id="2648"></path></svg>