<?xml version="1.0" standalone="no"?><!DOCTYPE svg PUBLIC "-//W3C//DTD SVG 1.1//EN" "http://www.w3.org/Graphics/SVG/1.1/DTD/svg11.dtd"><svg t="1602842483204" class="icon" viewBox="0 0 1024 1024" version="1.1" xmlns="http://www.w3.org/2000/svg" p-id="1202" width="22" height="22" xmlns:xlink="http://www.w3.org/1999/xlink"><defs><style type="text/css"></style></defs><path d="M70.4 470.4l156.8-163.2c6.4-6.4 16-9.6 22.4-9.6 9.6 0 19.2 6.4 22.4 9.6l166.4 160c6.4 6.4 9.6 12.8 9.6 22.4 0 9.6-6.4 19.2-9.6 22.4l-166.4 163.2c-6.4 6.4-16 9.6-22.4 9.6-9.6 0-19.2-6.4-22.4-6.4l-156.8-163.2c-6.4-6.4-9.6-16-9.6-22.4 0-9.6 3.2-16 9.6-22.4zM963.2 83.2v201.6c0 6.4-6.4 19.2-9.6 22.4-6.4 6.4-16 9.6-22.4 9.6h-252.8c-6.4 0-19.2-6.4-22.4-9.6-6.4-6.4-9.6-16-9.6-22.4V224h-64c-6.4 0-19.2 6.4-22.4 9.6-6.4 6.4-9.6 16-9.6 22.4v460.8c0 6.4 6.4 19.2 9.6 22.4 6.4 6.4 16 9.6 22.4 9.6h64V736c0-6.4 6.4-19.2 9.6-22.4 9.6-9.6 16-9.6 22.4-9.6h252.8c6.4 0 19.2 6.4 22.4 9.6 6.4 6.4 9.6 16 9.6 22.4v204.8c0 6.4-6.4 19.2-9.6 22.4-6.4 6.4-16 9.6-22.4 9.6h-252.8c-6.4 0-19.2-6.4-22.4-9.6-6.4-6.4-9.6-16-9.6-22.4v-92.8h-140.8c-6.4 0-19.2-6.4-22.4-9.6-6.4-6.4-9.6-16-9.6-22.4V179.2c0-6.4 6.4-19.2 9.6-22.4 6.4-6.4 16-9.6 22.4-9.6h140.8v-64c0-6.4 6.4-19.2 9.6-22.4 6.4-6.4 16-9.6 22.4-9.6h252.8c6.4 0 19.2 6.4 22.4 9.6 6.4 6.4 9.6 16 9.6 22.4z" p-id="1203" fill="#ffffff"></path></svg>