<?xml version="1.0" standalone="no"?><!DOCTYPE svg PUBLIC "-//W3C//DTD SVG 1.1//EN" "http://www.w3.org/Graphics/SVG/1.1/DTD/svg11.dtd"><svg t="1602558556273" class="icon" viewBox="0 0 1024 1024" version="1.1" xmlns="http://www.w3.org/2000/svg" p-id="20140" width="16" height="16" xmlns:xlink="http://www.w3.org/1999/xlink"><defs><style type="text/css"></style></defs><path d="M128 128v768h768.085L896 358.997 665.003 128H128z m768 853.333H128c-47.061 0-85.333-38.272-85.333-85.333V128c0-47.061 38.272-85.333 85.333-85.333h572.373l280.96 281.002V896c0 47.061-38.272 85.333-85.333 85.333z" p-id="20141"></path><path d="M298.667 426.667h256V128h-256v298.667zM575.787 512H277.504c-35.37 0-64.17-28.8-64.17-64.17V42.666H640v405.162C640 483.2 611.2 512 575.787 512z" p-id="20142"></path></svg>