<?xml version="1.0" standalone="no"?><!DOCTYPE svg PUBLIC "-//W3C//DTD SVG 1.1//EN" "http://www.w3.org/Graphics/SVG/1.1/DTD/svg11.dtd"><svg t="1602843177429" class="icon" viewBox="0 0 1024 1024" version="1.1" xmlns="http://www.w3.org/2000/svg" p-id="1988" width="16" height="16" xmlns:xlink="http://www.w3.org/1999/xlink"><defs><style type="text/css"></style></defs><path d="M742.6339331 209.94219358H281.3660669c-22.20114693 0-40.26079551 20.63959838-40.2607955 45.96384244v380.54259494c0 25.32424405 18.05964857 45.96384242 40.26079551 45.96384242h190.37313758v76.65166632H340.84069904c-10.52347943 0-19.14594322 9.02982429-19.14594321 20.09645103V803.26275331c0 11.06662676 8.62246379 20.09645105 19.14594322 20.09645104h342.3186019c10.52347943 0 19.14594322-9.02982429 19.14594323-20.09645104v-24.10216258c0-11.06662676-8.62246379-20.09645105-19.14594322-20.09645103H552.26079551V682.48036679h190.37313759c22.20114693 0 40.26079551-20.63959838 40.2607955-45.96384242V255.90603602c0-25.32424405-18.05964857-45.96384242-40.2607955-45.96384244z m10.99873333 384.68409332H270.36733356v-33.40356052h483.26533287v33.40356051z" fill="#2c2c2c" p-id="1989"></path></svg>