<?xml version="1.0" standalone="no"?><!DOCTYPE svg PUBLIC "-//W3C//DTD SVG 1.1//EN" "http://www.w3.org/Graphics/SVG/1.1/DTD/svg11.dtd"><svg t="1597669308763" class="icon" viewBox="0 0 1024 1024" version="1.1" xmlns="http://www.w3.org/2000/svg" p-id="13445" xmlns:xlink="http://www.w3.org/1999/xlink" width="48" height="48"><defs><style type="text/css"></style></defs><path d="M512.150588 618.797176a101.948235 101.948235 0 0 0 102.008471-101.677176 101.647059 101.647059 0 0 0-102.008471-101.647059 101.797647 101.797647 0 0 0-101.827764 101.647059 101.797647 101.797647 0 0 0 101.827764 101.677176zM222.870588 30.117647A192.692706 192.692706 0 0 0 30.117647 222.870588v578.258824C30.117647 907.625412 116.374588 993.882353 222.870588 993.882353h578.258824c106.496 0 192.752941-86.256941 192.752941-192.752941V222.870588C993.882353 116.374588 907.625412 30.117647 801.129412 30.117647H222.870588z m528.293647 441.735529c13.793882 2.409412 28.581647 14.456471 28.581647 29.545412v34.213647c0 14.607059-14.607059 24.425412-29.244235 27.768471l-48.188235 12.047059-1.114353 3.523764c-3.192471 9.456941-7.228235 18.944-11.896471 28.431059l-1.776941 3.222588 25.840941 43.038118c7.860706 12.679529 11.264 29.876706 0.963765 40.146824l-24.274824 24.274823c-6.113882 6.113882-13.974588 7.378824-19.57647 7.378824a39.454118 39.454118 0 0 1-21.684706-6.595765l-42.074353-26.834824-3.373176 1.776942c-9.788235 5.150118-19.907765 9.336471-30.057412 12.559058l-3.523765 1.114353-10.752 48.670118c-2.56 13.793882-14.637176 28.581647-29.726118 28.581647H495.134118c-14.607059 0-24.425412-14.607059-27.768471-29.063529l-11.896471-47.706353-3.523764-1.144471a199.589647 199.589647 0 0 1-32.617412-13.643294l-3.373176-1.776941-43.218824 27.467294a38.701176 38.701176 0 0 1-21.684706 6.595765 27.045647 27.045647 0 0 1-19.425882-7.378824l-24.274824-24.274823c-10.270118-10.270118-6.896941-27.467294 0.963765-40.146824l26.985412-44.995765-1.596236-3.373176a199.800471 199.800471 0 0 1-10.932705-26.352941l-1.114353-3.523765-48.188236-12.047059c-14.607059-3.373176-29.244235-13.191529-29.244235-27.76847v-34.213647c0-15.088941 14.787765-27.136 28.762353-29.545412l47.856941-10.752 1.114353-3.704471c2.891294-8.975059 6.746353-18.311529 11.745882-28.431059l1.596236-3.373176-26.985412-44.995765c-7.860706-12.528941-11.233882-29.876706-0.963765-40.146823l24.274824-24.244706a27.045647 27.045647 0 0 1 19.425882-7.378824c7.559529 0 15.751529 2.56 21.865412 6.746353l42.887529 27.316706 3.553883-1.776941a207.721412 207.721412 0 0 1 32.286117-13.643294l3.523765-1.144471 11.896471-47.676235c3.373176-14.456471 13.312-29.063529 27.76847-29.063529h34.394353c15.088941 0 27.136 14.757647 29.545412 28.581647l10.752 48.489411 3.70447 1.114353c10.119529 3.373176 20.389647 7.559529 30.358589 12.67953l3.373176 1.776941 42.074353-26.654118a38.851765 38.851765 0 0 1 21.684706-6.746353c5.481412 0 13.342118 1.264941 19.456 7.378824l24.274824 24.244706c10.270118 10.300235 6.896941 27.617882-0.963765 40.146823l-25.840941 43.068236 1.776941 3.19247c5.300706 10.601412 9.456941 20.570353 12.679529 30.509177l1.114353 3.70447 47.947294 10.812235z" fill="#4DA6FF" p-id="13446"></path></svg>