<?xml version="1.0" standalone="no"?><!DOCTYPE svg PUBLIC "-//W3C//DTD SVG 1.1//EN" "http://www.w3.org/Graphics/SVG/1.1/DTD/svg11.dtd"><svg t="1603780280015" class="icon" viewBox="0 0 1024 1024" version="1.1" xmlns="http://www.w3.org/2000/svg" p-id="11399" width="32" height="32" xmlns:xlink="http://www.w3.org/1999/xlink"><defs><style type="text/css"></style></defs><path d="M237.381818 0H93.090909C41.890909 0 0 41.890909 0 93.090909v60.509091c0 51.2 41.890909 93.090909 93.090909 93.090909h144.290909c51.2 0 93.090909-41.890909 93.090909-93.090909V93.090909c4.654545-51.2-37.236364-93.090909-93.090909-93.090909z m37.236364 148.945455c0 23.272727-18.618182 41.890909-41.890909 41.890909H97.745455c-23.272727 0-41.890909-18.618182-41.89091-41.890909v-46.545455c0-23.272727 18.618182-41.890909 41.89091-41.890909H232.727273c23.272727 0 41.890909 18.618182 41.890909 41.890909v46.545455zM237.381818 386.327273H93.090909c-51.2 0-93.090909 41.890909-93.090909 93.090909v60.509091c0 51.2 41.890909 93.090909 93.090909 93.090909h144.290909c51.2 0 93.090909-41.890909 93.090909-93.090909v-60.509091c4.654545-51.2-37.236364-93.090909-93.090909-93.090909z m37.236364 148.945454c0 23.272727-18.618182 41.890909-41.890909 41.890909H97.745455c-23.272727 0-41.890909-18.618182-41.89091-41.890909v-46.545454c0-23.272727 18.618182-41.890909 41.89091-41.890909H232.727273c23.272727 0 41.890909 18.618182 41.890909 41.890909v46.545454zM237.381818 772.654545H93.090909c-51.2 0-93.090909 41.890909-93.090909 93.09091V930.909091c0 51.2 41.890909 93.090909 93.090909 93.090909h144.290909c51.2 0 93.090909-41.890909 93.090909-93.090909v-60.509091c4.654545-55.854545-37.236364-97.745455-93.090909-97.745455z m37.236364 148.945455c0 23.272727-18.618182 41.890909-41.890909 41.890909H97.745455c-23.272727 0-41.890909-18.618182-41.89091-41.890909v-46.545455c0-23.272727 18.618182-41.890909 41.89091-41.890909H232.727273c23.272727 0 41.890909 18.618182 41.890909 41.890909v46.545455zM912.290909 288.581818h-218.763636c-60.509091 0-111.709091 51.2-111.709091 111.709091v218.763636c0 60.509091 51.2 111.709091 111.709091 111.709091h218.763636c60.509091 0 111.709091-51.2 111.709091-111.709091V400.290909c0-60.509091-51.2-111.709091-111.709091-111.709091z m55.854546 330.472727c0 32.581818-27.927273 60.509091-60.509091 60.509091H698.181818c-32.581818 0-60.509091-27.927273-60.509091-60.509091V404.945455c0-32.581818 27.927273-60.509091 60.509091-60.509091h209.454546c32.581818 0 60.509091 27.927273 60.509091 60.509091v214.10909z" fill="#303133" p-id="11400"></path><path d="M377.018182 83.781818H311.854545v60.509091h69.818182c32.581818 0 55.854545 23.272727 55.854546 55.854546v623.70909c0 32.581818-23.272727 55.854545-55.854546 55.854546H311.854545v60.509091h69.818182c65.163636 0 116.363636-51.2 116.363637-116.363637V195.490909c-4.654545-60.509091-55.854545-111.709091-121.018182-111.709091z" fill="#303133" p-id="11401"></path><path d="M600.436364 539.927273h-279.272728c-18.618182 0-27.927273-13.963636-27.927272-27.927273 0-18.618182 13.963636-27.927273 27.927272-27.927273h279.272728c18.618182 0 27.927273 13.963636 27.927272 27.927273 4.654545 18.618182-9.309091 27.927273-27.927272 27.927273z" fill="#303133" p-id="11402"></path></svg>