<?xml version="1.0" standalone="no"?>
<!DOCTYPE svg PUBLIC "-//W3C//DTD SVG 1.1//EN" "http://www.w3.org/Graphics/SVG/1.1/DTD/svg11.dtd" >
<svg xmlns="http://www.w3.org/2000/svg">
<metadata>Generated by IcoMoon</metadata>
<defs>
<font id="icomoon" horiz-adv-x="1024">
<font-face units-per-em="1024" ascent="960" descent="-64" />
<missing-glyph horiz-adv-x="1024" />
<glyph unicode="&#x20;" horiz-adv-x="512" d="" />
<glyph unicode="&#xe900;" glyph-name="edit" d="M900.22 960h-776.44c-67.516 0-123.78-56.264-123.78-123.78v-776.44c0-67.516 56.264-123.78 123.78-123.78h776.44c67.516 0 123.78 56.264 123.78 123.78v776.44c0 67.516-56.264 123.78-123.78 123.78zM253.187 104.791c-5.626 0-11.253 0-11.253 0-5.626 5.626-5.626 5.626-5.626 11.253v0c0 11.253 11.253 123.78 16.879 180.044l163.165-123.78-163.165-67.516zM455.736 200.44l-185.67 140.659 298.198 405.099 185.67-135.033-298.198-410.725zM782.066 644.923l-11.253-16.879-185.67 135.033 11.253 16.879c5.626 11.253 11.253 16.879 22.505 16.879s16.879 0 28.132-5.626l129.407-95.648c5.626-5.626 11.253-16.879 11.253-22.505 0-11.253 0-22.505-5.626-28.132zM433.231 307.341c0-5.626 5.626-11.253 11.253-11.253 5.626-11.253 22.505-11.253 28.132 0l202.549 281.319c5.626 11.253 5.626 22.505-5.626 28.132-5.626 5.626-11.253 5.626-16.879 5.626s-11.253-5.626-11.253-11.253l-202.549-281.319c-5.626 0-5.626-5.626-5.626-11.253z" />
<glyph unicode="&#xe901;" glyph-name="edit-glay" d="M900.22 960h-776.44c-67.516 0-123.78-56.264-123.78-123.78v-776.44c0-67.516 56.264-123.78 123.78-123.78h776.44c67.516 0 123.78 56.264 123.78 123.78v776.44c0 67.516-56.264 123.78-123.78 123.78zM253.187 104.791c-5.626 0-11.253 0-11.253 0-5.626 5.626-5.626 5.626-5.626 11.253v0c0 11.253 11.253 123.78 16.879 180.044l163.165-123.78-163.165-67.516zM455.736 200.44l-185.67 140.659 298.198 405.099 185.67-135.033-298.198-410.725zM782.066 644.923l-11.253-16.879-185.67 135.033 11.253 16.879c5.626 11.253 11.253 16.879 22.505 16.879s16.879 0 28.132-5.626l129.407-95.648c5.626-5.626 11.253-16.879 11.253-22.505 0-11.253 0-22.505-5.626-28.132zM433.231 307.341c0-5.626 5.626-11.253 11.253-11.253 5.626-11.253 22.505-11.253 28.132 0l202.549 281.319c5.626 11.253 5.626 22.505-5.626 28.132-5.626 5.626-11.253 5.626-16.879 5.626s-11.253-5.626-11.253-11.253l-202.549-281.319c-5.626 0-5.626-5.626-5.626-11.253z" />
<glyph unicode="&#xe902;" glyph-name="delete" d="M515.18 960c-286.211 0-515.18-228.969-515.18-515.18s228.969-515.18 515.18-515.18c286.211 0 515.18 228.969 515.18 515.18s-235.329 515.18-515.18 515.18zM725.068 304.894c19.081-19.081 19.081-50.882 0-76.323-19.081-19.081-50.882-19.081-76.323 0l-133.565 146.286-139.925-139.925c-19.081-19.081-50.882-19.081-76.323 0-19.081 19.081-19.081 50.882 0 76.323l139.925 139.925-139.925 139.925c-19.081 19.081-19.081 50.882 0 69.963s50.882 19.081 76.323 0l139.925-139.925 139.925 139.925c19.081 19.081 50.882 19.081 76.323 0 19.081-19.081 19.081-50.882 0-76.323l-146.286-139.925 139.925-139.925z" />
<glyph unicode="&#xe903;" glyph-name="switch" d="M515.18 960c-286.211 0-515.18-228.969-515.18-515.18s228.969-515.18 515.18-515.18c286.211 0 515.18 228.969 515.18 515.18s-235.329 515.18-515.18 515.18zM820.472 323.975h-527.901l159.006-108.124c12.72-6.36 19.081-25.441 6.36-38.161-6.36-12.72-25.441-19.081-38.161-6.36l-228.969 159.006c-6.36 0-12.72 12.72-12.72 19.081 0 12.72 12.72 25.441 25.441 25.441h610.584c12.72 0 25.441-12.72 25.441-25.441 6.36-12.72-6.36-25.441-19.081-25.441zM820.472 514.783h-616.944c-12.72 0-25.441 12.72-25.441 31.801 0 12.72 12.72 25.441 25.441 25.441h521.54l-152.646 108.124c-12.72 12.72-12.72 25.441-6.36 38.161s25.441 19.081 38.161 12.72l228.969-159.006c6.36-6.36 12.72-12.72 12.72-25.441 0-19.081-12.72-31.801-25.441-31.801z" />
<glyph unicode="&#xe904;" glyph-name="operate" d="M511.777 960c-282.437 0-511.777-229.34-511.777-511.777s229.34-511.777 511.777-511.777 511.777 229.34 511.777 511.777-228.894 511.777-511.777 511.777zM359.627 168.464l-142.334-38.372c-14.278-3.569-27.217 9.37-23.202 23.202l38.372 142.334c3.569 14.278 21.417 18.74 31.679 8.478l104.408-104.408c10.262-9.816 5.354-27.664-8.924-31.233zM708.546 513.366l-277.529-277.529c-13.832-13.832-36.141-13.832-49.527 0l-81.652 81.652c-13.832 13.832-13.832 36.141 0 49.527l277.529 277.529c13.832 13.832 36.141 13.832 49.527 0l81.652-81.652c13.832-13.386 13.832-35.695 0-49.527zM820.092 624.913l-40.157-40.157c-13.832-13.832-36.587-13.832-50.865 0l-80.76 80.76c-13.832 13.832-13.832 36.587 0 50.865l40.157 40.157c13.832 13.832 36.587 13.832 50.865 0l80.76-80.76c13.832-14.278 13.832-37.034 0-50.865z" />
<glyph unicode="&#xe905;" glyph-name="see-blue" d="M512 661.802c-140.659 0-270.066-84.396-315.077-213.802 45.011-123.78 174.418-213.802 315.077-213.802s270.066 84.396 315.077 213.802c-45.011 123.78-174.418 213.802-315.077 213.802zM512 290.462c-90.022 0-157.538 73.143-157.538 157.538 0 90.022 73.143 157.538 157.538 157.538 90.022 0 157.538-73.143 157.538-157.538 0-90.022-67.516-157.538-157.538-157.538zM900.22 960h-776.44c-67.516 0-123.78-56.264-123.78-123.78v-776.44c0-67.516 56.264-123.78 123.78-123.78h776.44c67.516 0 123.78 56.264 123.78 123.78v776.44c0 67.516-56.264 123.78-123.78 123.78zM512 183.56c-174.418 0-326.33 112.527-371.341 264.44 45.011 151.912 196.923 264.44 371.341 264.44s326.33-112.527 371.341-264.44c-50.637-151.912-196.923-264.44-371.341-264.44z" />
<glyph unicode="&#xe906;" glyph-name="see-failure" d="M490.057 608.914c-87.771 0-160.914-73.143-160.914-168.229s73.143-168.229 160.914-168.229c95.086 0 168.229 80.457 168.229 168.229 0 95.086-73.143 168.229-168.229 168.229v0zM490.057 345.6c-51.2 0-95.086 43.886-95.086 95.086 0 58.514 43.886 102.4 102.4 102.4 51.2 0 95.086-43.886 95.086-102.4 0-51.2-43.886-95.086-102.4-95.086v0zM987.429 440.686v0 0zM980.114 469.943c0 0 0 0 0 0s0 0 0 0c-87.771 204.8-285.257 343.771-490.057 343.771s-394.971-138.971-482.743-336.457c0 0 0-7.314 0-7.314s0 0 0 0c0-7.314 0-7.314 0-7.314-7.314-7.314-7.314-14.629-7.314-14.629v-7.314c0 0 0-7.314 0-7.314s0-7.314 0-7.314c0 0 0-7.314 0-7.314s0 0 0-7.314c87.771-204.8 285.257-343.771 490.057-343.771 197.486 0 394.971 138.971 482.743 336.457 0 0 0 7.314 0 7.314s0 0 0 0c0 7.314 0 7.314 0 7.314s0 7.314 0 14.629c0 7.314 0 14.629 0 14.629 14.629 7.314 14.629 14.629 7.314 21.943v0zM921.6 440.686c0 0 0 0 0 0-80.457-182.857-256-299.886-424.229-299.886-175.543 0-351.086 117.029-431.543 299.886 0 0 0 0 0 0v7.314c0 0 0 0 0 0 80.457 175.543 256 299.886 424.229 299.886 175.543 0 351.086-124.343 431.543-307.2v0c0 7.314 0 0 0 0v0z" />
<glyph unicode="&#xe907;" glyph-name="see-glay" d="M512 661.802c-140.659 0-270.066-84.396-315.077-213.802 45.011-123.78 174.418-213.802 315.077-213.802s270.066 84.396 315.077 213.802c-45.011 123.78-174.418 213.802-315.077 213.802zM512 290.462c-90.022 0-157.538 73.143-157.538 157.538 0 90.022 73.143 157.538 157.538 157.538 90.022 0 157.538-73.143 157.538-157.538 0-90.022-67.516-157.538-157.538-157.538zM900.22 960h-776.44c-67.516 0-123.78-56.264-123.78-123.78v-776.44c0-67.516 56.264-123.78 123.78-123.78h776.44c67.516 0 123.78 56.264 123.78 123.78v776.44c0 67.516-56.264 123.78-123.78 123.78zM512 183.56c-174.418 0-326.33 112.527-371.341 264.44 45.011 151.912 196.923 264.44 371.341 264.44s326.33-112.527 371.341-264.44c-50.637-151.912-196.923-264.44-371.341-264.44z" />
<glyph unicode="&#xe908;" glyph-name="see-success" d="M490.057 608.914c-87.771 0-160.914-73.143-160.914-168.229s73.143-168.229 160.914-168.229c95.086 0 168.229 80.457 168.229 168.229 0 95.086-73.143 168.229-168.229 168.229v0zM490.057 345.6c-51.2 0-95.086 43.886-95.086 95.086 0 58.514 43.886 102.4 102.4 102.4 51.2 0 95.086-43.886 95.086-102.4 0-51.2-43.886-95.086-102.4-95.086v0zM987.429 440.686v0 0zM980.114 469.943c0 0 0 0 0 0s0 0 0 0c-87.771 204.8-285.257 343.771-490.057 343.771s-394.971-138.971-482.743-336.457c0 0 0-7.314 0-7.314s0 0 0 0c0-7.314 0-7.314 0-7.314-7.314-7.314-7.314-14.629-7.314-14.629v-7.314c0 0 0-7.314 0-7.314s0-7.314 0-7.314c0 0 0-7.314 0-7.314s0 0 0-7.314c87.771-204.8 285.257-343.771 490.057-343.771 197.486 0 394.971 138.971 482.743 336.457 0 0 0 7.314 0 7.314s0 0 0 0c0 7.314 0 7.314 0 7.314s0 7.314 0 14.629c0 7.314 0 14.629 0 14.629 14.629 7.314 14.629 14.629 7.314 21.943v0zM921.6 440.686c0 0 0 0 0 0-80.457-182.857-256-299.886-424.229-299.886-175.543 0-351.086 117.029-431.543 299.886 0 0 0 0 0 0v7.314c0 0 0 0 0 0 80.457 175.543 256 299.886 424.229 299.886 175.543 0 351.086-124.343 431.543-307.2v0c0 7.314 0 0 0 0v0z" />
<glyph unicode="&#xe909;" glyph-name="init" d="M375.829 688.32c0 86.053-70.316 155.879-155.879 155.879-86.053 0-155.879-70.318-155.879-155.879 0-41.798 16.719-80.153 43.765-108.182-7.376-30.487-11.31-62.45-11.31-95.888 0-148.503 78.186-278.813 195.709-351.59l31.472 128.343c-63.925 53.599-104.247 133.751-104.247 223.247 0 16.228 1.475 32.455 3.933 47.698 83.594 1.475 152.437 70.318 152.437 156.371zM509.581 775.357c54.091 0 104.738-14.752 148.011-40.321-6.884-17.702-10.325-36.388-10.325-56.55 0-86.054 70.316-155.879 155.879-155.879 85.561 0 155.879 70.319 155.879 156.371s-69.826 155.879-155.879 155.879c-20.161 0-39.339-3.934-57.532-10.818-66.876 46.715-148.504 73.76-236.524 73.76-59.5 0-116.050-12.785-167.19-35.404l71.302-103.756c30.486 11.311 62.94 16.719 96.379 16.719zM800.687 470.973c-4.427-106.215-66.384-197.677-154.896-244.391-25.57 50.649-78.678 85.071-139.161 85.071-86.054 0-155.879-70.319-155.879-155.88 0-86.053 70.319-155.879 155.879-155.879 64.908 0 119.983 39.339 144.078 95.397 159.322 57.532 272.913 210.461 272.913 388.961 0 9.344-0.492 18.194-0.983 27.537l-121.95-40.815z" />
<glyph unicode="&#xe90a;" glyph-name="plus" d="M448 512v384c0 35.346 28.654 64 64 64s64-28.654 64-64v0-384h384c35.346 0 64-28.654 64-64s-28.654-64-64-64v0h-384v-384c0-35.346-28.654-64-64-64s-64 28.654-64 64v0 384h-384c-35.346 0-64 28.654-64 64s28.654 64 64 64v0h384z" />
<glyph unicode="&#xe90b;" glyph-name="yes" d="M900.22 960h-776.44c-67.516 0-123.78-56.264-123.78-123.78v-776.44c0-67.516 56.264-123.78 123.78-123.78h776.44c67.516 0 123.78 56.264 123.78 123.78v776.44c0 67.516-56.264 123.78-123.78 123.78zM866.462 644.923l-433.231-472.615c-11.253-11.253-22.505-16.879-39.385-16.879s-28.132 5.626-33.758 16.879l-208.176 275.692c-16.879 16.879-11.253 45.011 5.626 61.89l28.132 28.132c16.879 16.879 50.637 16.879 67.516-5.626l84.396-84.396c33.758-33.758 90.022-39.385 123.78-5.626l326.33 281.319c16.879 16.879 45.011 16.879 67.516 0l11.253-11.253c16.879-22.505 16.879-50.637 0-67.516z" />
<glyph unicode="&#xe90c;" glyph-name="yes-glay" d="M900.22 960h-776.44c-67.516 0-123.78-56.264-123.78-123.78v-776.44c0-67.516 56.264-123.78 123.78-123.78h776.44c67.516 0 123.78 56.264 123.78 123.78v776.44c0 67.516-56.264 123.78-123.78 123.78zM866.462 644.923l-433.231-472.615c-11.253-11.253-22.505-16.879-39.385-16.879s-28.132 5.626-33.758 16.879l-208.176 275.692c-16.879 16.879-11.253 45.011 5.626 61.89l28.132 28.132c16.879 16.879 50.637 16.879 67.516-5.626l84.396-84.396c33.758-33.758 90.022-39.385 123.78-5.626l326.33 281.319c16.879 16.879 45.011 16.879 67.516 0l11.253-11.253c16.879-22.505 16.879-50.637 0-67.516z" />
<glyph unicode="&#xe90d;" glyph-name="del-block" d="M900.22 960h-776.44c-67.516 0-123.78-56.264-123.78-123.78v-776.44c0-67.516 56.264-123.78 123.78-123.78h776.44c67.516 0 123.78 56.264 123.78 123.78v776.44c0 67.516-56.264 123.78-123.78 123.78zM753.934 290.462c22.505-22.505 22.505-61.89 0-84.396v0c-22.505-22.505-61.89-22.505-84.396 0l-157.538 157.538-157.538-157.538c-22.505-22.505-61.89-22.505-84.396 0v0c-22.505 22.505-22.505 61.89 0 84.396l157.538 157.538-163.165 163.165c-22.505 22.505-22.505 61.89 0 84.396s61.89 22.505 84.396 0l157.538-157.538 157.538 157.538c22.505 22.505 61.89 22.505 84.396 0s22.505-61.89 0-84.396l-157.538-157.538 163.165-163.165z" />
<glyph unicode="&#xe90e;" glyph-name="del-block-glay" d="M900.22 960h-776.44c-67.516 0-123.78-56.264-123.78-123.78v-776.44c0-67.516 56.264-123.78 123.78-123.78h776.44c67.516 0 123.78 56.264 123.78 123.78v776.44c0 67.516-56.264 123.78-123.78 123.78zM753.934 290.462c22.505-22.505 22.505-61.89 0-84.396v0c-22.505-22.505-61.89-22.505-84.396 0l-157.538 157.538-157.538-157.538c-22.505-22.505-61.89-22.505-84.396 0v0c-22.505 22.505-22.505 61.89 0 84.396l157.538 157.538-163.165 163.165c-22.505 22.505-22.505 61.89 0 84.396s61.89 22.505 84.396 0l157.538-157.538 157.538 157.538c22.505 22.505 61.89 22.505 84.396 0s22.505-61.89 0-84.396l-157.538-157.538 163.165-163.165z" />
<glyph unicode="&#xe90f;" glyph-name="credentials" d="M900.22 960h-776.44c-67.516 0-123.78-56.264-123.78-123.78v-776.44c0-67.516 56.264-123.78 123.78-123.78h776.44c67.516 0 123.78 56.264 123.78 123.78v776.44c0 67.516-56.264 123.78-123.78 123.78zM782.066 357.978l-5.626-5.626c-61.89-135.033-146.286-219.429-264.44-241.934-118.154 28.132-208.176 106.901-270.066 241.934l-5.626 5.626-11.253 343.209 45.011 5.626c95.648 5.626 168.791 33.758 225.055 84.396 11.253 5.626 22.505 5.626 28.132 0 56.264-45.011 135.033-73.143 225.055-84.396l45.011-5.626-11.253-343.209zM320.703 616.791l11.253-241.934c45.011-95.648 106.901-151.912 180.044-180.044 78.769 22.505 135.033 84.396 180.044 180.044l11.253 241.934c-73.143 11.253-135.033 33.758-191.297 67.516-56.264-33.758-118.154-56.264-191.297-67.516zM652.659 532.396l-180.044-202.549-101.275 101.275 45.011 39.385 61.89-61.89 135.033 157.538 39.385-33.758z" />
<glyph unicode="&#xe910;" glyph-name="credentials-glay" d="M900.22 960h-776.44c-67.516 0-123.78-56.264-123.78-123.78v-776.44c0-67.516 56.264-123.78 123.78-123.78h776.44c67.516 0 123.78 56.264 123.78 123.78v776.44c0 67.516-56.264 123.78-123.78 123.78zM782.066 357.978l-5.626-5.626c-61.89-135.033-146.286-219.429-264.44-241.934-118.154 28.132-208.176 106.901-270.066 241.934l-5.626 5.626-11.253 343.209 45.011 5.626c95.648 5.626 168.791 33.758 225.055 84.396 11.253 5.626 22.505 5.626 28.132 0 56.264-45.011 135.033-73.143 225.055-84.396l45.011-5.626-11.253-343.209zM320.703 616.791l11.253-241.934c45.011-95.648 106.901-151.912 180.044-180.044 78.769 22.505 135.033 84.396 180.044 180.044l11.253 241.934c-73.143 11.253-135.033 33.758-191.297 67.516-56.264-33.758-118.154-56.264-191.297-67.516zM652.659 532.396l-180.044-202.549-101.275 101.275 45.011 39.385 61.89-61.89 135.033 157.538 39.385-33.758z" />
<glyph unicode="&#xe911;" glyph-name="stop" d="M900.22 960h-776.44c-67.516 0-123.78-56.264-123.78-123.78v-776.44c0-67.516 56.264-123.78 123.78-123.78h776.44c67.516 0 123.78 56.264 123.78 123.78v776.44c0 67.516-56.264 123.78-123.78 123.78zM855.209 386.11h-692.044v123.78h692.044v-123.78z" />
<glyph unicode="&#xe912;" glyph-name="stop-glay" d="M900.22 960h-776.44c-67.516 0-123.78-56.264-123.78-123.78v-776.44c0-67.516 56.264-123.78 123.78-123.78h776.44c67.516 0 123.78 56.264 123.78 123.78v776.44c0 67.516-56.264 123.78-123.78 123.78zM855.209 386.11h-692.044v123.78h692.044v-123.78z" />
<glyph unicode="&#xe914;" glyph-name="logout" d="M97.011-42.442c-53.895 0-97.011 43.116-97.011 97.011v781.474c0 53.895 43.116 97.011 97.011 97.011h420.379c21.558 0 43.116-16.168 43.116-43.116v-150.905c0-21.558-16.168-43.116-43.116-43.116-26.947 5.389-43.116 21.558-43.116 43.116v113.179h-377.263c-5.389 0-16.168-5.389-16.168-16.168v-786.863c0-5.389 5.389-16.168 16.168-16.168h377.263v107.789c0 21.558 16.168 43.116 43.116 43.116 21.558 0 43.116-16.168 43.116-43.116v-150.905c0-21.558-16.168-43.116-43.116-43.116l-420.379 10.779zM382.653 404.884c-21.558 0-43.116 16.168-43.116 43.116 0 21.558 16.168 43.116 43.116 43.116h490.442c21.558-5.389 43.116-21.558 43.116-43.116s-16.168-43.116-43.116-43.116h-490.442zM700.632 151.579c-10.779 0-21.558 5.389-26.947 10.779-16.168 16.168-16.168 43.116 0 59.284l237.137 226.358-237.137 220.968c-16.168 16.168-16.168 43.116 0 59.284s43.116 16.168 59.284 0l269.474-253.305c10.779-5.389 10.779-16.168 10.779-26.947v0c0-10.779-5.389-21.558-10.779-26.947l-269.474-253.305c-16.168-10.779-26.947-16.168-32.337-16.168v0z" />
<glyph unicode="&#xe915;" glyph-name="edit-hollow" d="M957.44 908.8c10.24 0 15.36-10.24 15.36-20.48v-885.76c0-10.24-10.24-20.48-20.48-20.48h-880.64c-10.24 5.12-20.48 10.24-20.48 20.48v885.76c0 10.24 10.24 20.48 20.48 20.48h885.76zM957.44 960h-885.76c-40.96 0-71.68-30.72-71.68-71.68v-885.76c0-35.84 30.72-66.56 71.68-66.56h885.76c40.96 0 71.68 30.72 71.68 71.68v880.64c-5.12 40.96-35.84 71.68-71.68 71.68v0zM865.28 673.28l-46.080-51.2c-10.24-10.24-25.6-10.24-35.84 0l-138.24 138.24c-10.24 10.24-10.24 25.6 0 35.84l46.080 46.080c10.24 15.36 25.6 15.36 35.84 5.12l138.24-138.24c10.24-10.24 10.24-25.6 0-35.84zM762.88 565.76l-312.32-312.32c-10.24-10.24-20.48-10.24-30.72 0l-143.36 143.36c-10.24 10.24-10.24 20.48 0 30.72l312.32 312.32c10.24 10.24 20.48 10.24 30.72 0l143.36-143.36c5.12-10.24 5.12-20.48 0-30.72zM158.72 145.92l61.44 220.16c5.12 15.36 25.6 20.48 35.84 10.24l143.36-143.36c10.24-10.24 5.12-30.72-10.24-35.84l-220.16-61.44c-10.24 0-15.36 5.12-10.24 10.24zM839.68 110.080h-655.36c-15.36 0-30.72-10.24-30.72-30.72v-5.12c0-15.36 10.24-30.72 30.72-30.72h655.36c15.36 0 30.72 10.24 30.72 30.72v5.12c0 20.48-15.36 30.72-30.72 30.72z" />
<glyph unicode="&#xe916;" glyph-name="edit-hollow-hover" d="M957.44 908.8c10.24 0 15.36-10.24 15.36-20.48v-885.76c0-10.24-10.24-20.48-20.48-20.48h-880.64c-10.24 5.12-20.48 10.24-20.48 20.48v885.76c0 10.24 10.24 20.48 20.48 20.48h885.76zM957.44 960h-885.76c-40.96 0-71.68-30.72-71.68-71.68v-885.76c0-35.84 30.72-66.56 71.68-66.56h885.76c40.96 0 71.68 30.72 71.68 71.68v880.64c-5.12 40.96-35.84 71.68-71.68 71.68v0zM865.28 673.28l-46.080-51.2c-10.24-10.24-25.6-10.24-35.84 0l-138.24 138.24c-10.24 10.24-10.24 25.6 0 35.84l46.080 46.080c10.24 15.36 25.6 15.36 35.84 5.12l138.24-138.24c10.24-10.24 10.24-25.6 0-35.84zM762.88 565.76l-312.32-312.32c-10.24-10.24-20.48-10.24-30.72 0l-143.36 143.36c-10.24 10.24-10.24 20.48 0 30.72l312.32 312.32c10.24 10.24 20.48 10.24 30.72 0l143.36-143.36c5.12-10.24 5.12-20.48 0-30.72zM158.72 145.92l61.44 220.16c5.12 15.36 25.6 20.48 35.84 10.24l143.36-143.36c10.24-10.24 5.12-30.72-10.24-35.84l-220.16-61.44c-10.24 0-15.36 5.12-10.24 10.24zM839.68 110.080h-655.36c-15.36 0-30.72-10.24-30.72-30.72v-5.12c0-15.36 10.24-30.72 30.72-30.72h655.36c15.36 0 30.72 10.24 30.72 30.72v5.12c0 20.48-15.36 30.72-30.72 30.72z" />
<glyph unicode="&#xe917;" glyph-name="tool" d="M943.543 477.257c80.457 80.457 102.4 197.486 65.829 299.886l-248.686-248.686-160.914 168.229 248.686 248.686c-102.4 36.571-219.429 14.629-299.886-65.829-87.771-87.771-109.714-219.429-51.2-329.143l-490.057-490.057c-7.314-7.314-7.314-29.257 0-36.571l87.771-87.771c7.314-7.314 29.257-7.314 36.571 0l490.057 490.057c102.4-51.2 234.057-36.571 321.829 51.2z" />
<glyph unicode="&#xe919;" glyph-name="export" d="M881.778 789.333h-45.511v142.222h-648.533v-142.222h-45.511c-79.644 0-142.222-62.578-142.222-136.533v-568.889c0-73.956 62.578-136.533 142.222-136.533h739.556c79.644 0 142.222 62.578 142.222 136.533v568.889c0 73.956-62.578 136.533-142.222 136.533zM881.778 704c34.133 0 56.889-22.756 56.889-51.2v-91.022h-102.4v142.222h45.511zM273.067 846.222h477.867v-284.444h-477.867v284.444zM142.222 704h45.511v-142.222h-102.4v91.022c0 28.444 28.444 51.2 56.889 51.2zM881.778 32.711h-739.556c-34.133 0-56.889 22.756-56.889 51.2v386.844h853.333v-386.844c0-28.444-22.756-51.2-56.889-51.2z" />
<glyph unicode="&#xe91a;" glyph-name="import" d="M1035.378 527.644l-409.6 409.6c-7.585 7.585-22.756 3.793-22.756-7.585v-235.141c0-7.585-7.585-11.378-11.378-11.378h-580.267c-3.793-3.793-11.378-11.378-11.378-18.963v-147.911c0-7.585 7.585-11.378 11.378-11.378h1012.622c15.17 0 18.963 11.378 11.378 22.756zM1024 394.904h-1012.622c-7.585 0-11.378-7.585-11.378-11.378v-147.911c0-11.378 7.585-15.17 11.378-15.17h576.474c7.585 0 11.378-7.585 11.378-11.378v-235.141c0-11.378 15.17-18.963 22.756-7.585l413.393 405.807c7.585 7.585 3.793 22.756-11.378 22.756z" />
<glyph unicode="&#xe91b;" glyph-name="department" d="M739.556 960h-489.244c-28.444 0-51.2-22.756-51.2-51.2v-984.178h591.644v984.178c5.689 28.444-17.067 51.2-51.2 51.2zM307.2 715.378c0 28.444 22.756 51.2 51.2 51.2h278.756c28.444 0 51.2-22.756 51.2-51.2s-22.756-56.889-51.2-56.889h-278.756c-28.444 0-51.2 28.444-51.2 56.889v0zM307.2 476.444c0 28.444 22.756 51.2 51.2 51.2h278.756c28.444 0 51.2-22.756 51.2-51.2s-22.756-51.2-51.2-51.2h-278.756c-28.444-5.689-51.2 17.067-51.2 51.2v0zM307.2 237.511c0 28.444 22.756 51.2 51.2 51.2h278.756c28.444 0 51.2-22.756 51.2-51.2s-22.756-51.2-51.2-51.2h-278.756c-28.444-5.689-51.2 17.067-51.2 51.2v0z" />
<glyph unicode="&#xe91c;" glyph-name="department-hover" d="M739.556 960h-489.244c-28.444 0-51.2-22.756-51.2-51.2v-984.178h591.644v984.178c5.689 28.444-17.067 51.2-51.2 51.2zM307.2 715.378c0 28.444 22.756 51.2 51.2 51.2h278.756c28.444 0 51.2-22.756 51.2-51.2s-22.756-56.889-51.2-56.889h-278.756c-28.444 0-51.2 28.444-51.2 56.889v0zM307.2 476.444c0 28.444 22.756 51.2 51.2 51.2h278.756c28.444 0 51.2-22.756 51.2-51.2s-22.756-51.2-51.2-51.2h-278.756c-28.444-5.689-51.2 17.067-51.2 51.2v0zM307.2 237.511c0 28.444 22.756 51.2 51.2 51.2h278.756c28.444 0 51.2-22.756 51.2-51.2s-22.756-51.2-51.2-51.2h-278.756c-28.444-5.689-51.2 17.067-51.2 51.2v0z" />
<glyph unicode="&#xe91d;" glyph-name="rule" d="M416.427-29.867h-334.507c-47.787 0-81.92 34.133-81.92 81.92v791.893c0 47.787 34.133 81.92 81.92 81.92h669.013c47.787 0 81.92-34.133 81.92-81.92v-163.84c0-20.48-13.653-34.133-34.133-34.133s-34.133 13.653-34.133 34.133v163.84c0 6.827-6.827 13.653-13.653 13.653h-669.013c-6.827 0-13.653-6.827-13.653-13.653v-791.893c0-6.827 6.827-13.653 13.653-13.653h334.507c20.48 0 34.133-13.653 34.133-34.133s-13.653-34.133-34.133-34.133zM628.053 659.627h-430.080c-20.48 0-34.133 13.653-34.133 34.133v20.48c0 20.48 13.653 34.133 34.133 34.133h430.080c20.48 0 34.133-13.653 34.133-34.133v-13.653c6.827-20.48-13.653-40.96-34.133-40.96zM450.56 475.307h-252.587c-20.48 0-34.133 13.653-34.133 34.133v13.653c0 20.48 13.653 34.133 34.133 34.133h252.587c20.48 0 34.133-13.653 34.133-34.133v-13.653c0-20.48-13.653-34.133-34.133-34.133zM320.853 284.16h-122.88c-20.48 0-34.133 13.653-34.133 34.133v20.48c0 20.48 13.653 34.133 34.133 34.133h116.053c20.48 0 34.133-13.653 34.133-34.133v-13.653c6.827-20.48-13.653-40.96-27.307-40.96zM942.080 263.68c0 40.96 27.307 81.92 61.44 95.573-6.827 13.653-13.653 34.133-20.48 47.787-34.133-13.653-81.92-6.827-109.227 27.307-27.307 27.307-40.96 75.093-27.307 109.227-13.653 6.827-27.307 13.653-47.787 20.48-13.653-34.133-54.613-61.44-95.573-61.44-34.133 0-68.267 20.48-88.747 54.613-13.653 0-27.307-6.827-47.787-13.653 13.653-40.96 6.827-81.92-20.48-109.227-27.307-34.133-75.093-40.96-109.227-27.307-6.827-13.653-13.653-27.307-20.48-47.787 34.133-13.653 61.44-54.613 61.44-95.573s-27.307-81.92-61.44-95.573c6.827-13.653 13.653-34.133 20.48-47.787 34.133 13.653 81.92 6.827 109.227-27.307 27.307-27.307 40.96-75.093 27.307-109.227 13.653 0 27.307-6.827 40.96-13.653 13.653 34.133 54.613 61.44 95.573 61.44s81.92-27.307 95.573-61.44c13.653 6.827 34.133 13.653 47.787 20.48-13.653 34.133-6.827 81.92 27.307 109.227 27.307 27.307 75.093 40.96 109.227 27.307 6.827 13.653 13.653 27.307 20.48 47.787-40.96 13.653-68.267 47.787-68.267 88.747zM709.973 86.187c-95.573 0-177.493 81.92-177.493 177.493s81.92 177.493 177.493 177.493 177.493-81.92 177.493-177.493-81.92-177.493-177.493-177.493z" />
<glyph unicode="&#xe91e;" glyph-name="rule-hover" d="M943.543 477.257c80.457 80.457 102.4 197.486 65.829 299.886l-248.686-248.686-160.914 168.229 248.686 248.686c-102.4 36.571-219.429 14.629-299.886-65.829-87.771-87.771-109.714-219.429-51.2-329.143l-490.057-490.057c-7.314-7.314-7.314-29.257 0-36.571l87.771-87.771c7.314-7.314 29.257-7.314 36.571 0l490.057 490.057c102.4-51.2 234.057-36.571 321.829 51.2z" />
<glyph unicode="&#xe91f;" glyph-name="square" d="M0-64h744.727v744.727h-744.727v-744.727zM279.273 960v-186.182h558.545v-558.545h186.182v744.727h-744.727z" />
<glyph unicode="&#xe920;" glyph-name="quit-department" d="M518.4 384c70.4 44.8 115.2 128 115.2 217.6 0 147.2-115.2 262.4-262.4 262.4s-256-115.2-256-262.4c0-89.6 44.8-172.8 115.2-217.6-134.4-51.2-230.4-185.6-230.4-339.2h134.4c0 134.4 108.8 243.2 243.2 243.2s243.2-108.8 243.2-243.2h134.4c-6.4 153.6-102.4 288-236.8 339.2zM371.2 729.6c70.4 0 128-57.6 128-128s-57.6-128-128-128-128 57.6-128 128 57.6 128 128 128zM947.2 480h-198.4c-38.4 0-70.4 32-70.4 70.4v0c0 38.4 32 70.4 70.4 70.4h198.4c38.4 0 70.4-32 70.4-70.4v0c0-38.4-32-70.4-70.4-70.4zM947.2 288h-204.8c-38.4 0-70.4 32-70.4 70.4v0c0 38.4 32 70.4 70.4 70.4h204.8c38.4 0 70.4-32 70.4-70.4v0c0-38.4-32-70.4-70.4-70.4z" />
<glyph unicode="&#xe921;" glyph-name="quit-companies" d="M518.4 390.4c70.4 44.8 115.2 128 115.2 217.6 0 140.8-115.2 256-262.4 256s-256-115.2-256-262.4c0-89.6 44.8-166.4 115.2-217.6-134.4-51.2-230.4-185.6-230.4-339.2h128c0 134.4 108.8 243.2 243.2 243.2s243.2-108.8 243.2-243.2h128c0 153.6-89.6 288-224 345.6zM371.2 736c70.4 0 128-57.6 128-128s-57.6-128-128-128-128 57.6-128 128 57.6 128 128 128zM966.4 537.6h-224c-38.4 0-70.4 32-70.4 70.4v0c0 38.4 32 70.4 70.4 70.4h224c38.4 0 70.4-32 70.4-70.4v0c0-38.4-32-70.4-70.4-70.4zM966.4 345.6h-256c-38.4 0-70.4 32-70.4 70.4v0c0 38.4 32 70.4 70.4 70.4h256c38.4 0 70.4-32 70.4-70.4v0c0-38.4-32-70.4-70.4-70.4zM966.4 153.6h-147.2c-38.4 0-70.4 32-70.4 70.4v0c0 38.4 32 70.4 70.4 70.4h147.2c38.4 0 70.4-32 70.4-70.4v0c0-38.4-32-70.4-70.4-70.4z" />
<glyph unicode="&#xe922;" glyph-name="quit-people" d="M642.844 686.933c0-119.392-96.786-216.178-216.178-216.178s-216.178 96.786-216.178 216.178c0 119.392 96.786 216.178 216.178 216.178s216.178-96.786 216.178-216.178zM574.578 209.067c0 62.578 22.756 119.467 62.578 159.289-62.578 34.133-130.844 56.889-210.489 56.889-233.244 0-426.667-187.733-426.667-420.978h699.733c-73.956 39.822-125.156 113.778-125.156 204.8zM813.511 413.867c-113.778 0-204.8-91.022-204.8-204.8s91.022-204.8 204.8-204.8 204.8 91.022 204.8 204.8c0 113.778-91.022 204.8-204.8 204.8zM921.6 186.311h-216.178c-17.067 0-28.444 11.378-28.444 28.444s11.378 28.444 28.444 28.444h216.178c17.067 0 28.444-11.378 28.444-28.444s-11.378-28.444-28.444-28.444z" />
<glyph unicode="&#xe926;" glyph-name="icon-sort" d="M957.44 908.8c10.24 0 15.36-10.24 15.36-20.48v-885.76c0-10.24-10.24-20.48-20.48-20.48h-880.64c-10.24 5.12-20.48 10.24-20.48 20.48v885.76c0 10.24 10.24 20.48 20.48 20.48h885.76zM957.44 960h-885.76c-40.96 0-71.68-30.72-71.68-71.68v-885.76c0-35.84 30.72-66.56 71.68-66.56h885.76c40.96 0 71.68 30.72 71.68 71.68v880.64c-5.12 40.96-35.84 71.68-71.68 71.68v0zM839.68 678.4h-650.24c-25.6 0-46.080 20.48-46.080 46.080v0c0 25.6 20.48 46.080 46.080 46.080h650.24c25.6 0 46.080-20.48 46.080-46.080v0c0-25.6-20.48-46.080-46.080-46.080zM256 396.8h-66.56c-25.6 0-46.080 20.48-46.080 46.080v0c0 25.6 20.48 46.080 46.080 46.080h66.56c25.6 0 46.080-20.48 46.080-46.080v0c0-20.48-20.48-46.080-46.080-46.080zM583.68 596.48v0c-10.24 10.24-20.48 15.36-35.84 15.36 0 0 0 0 0 0v0c0 0 0 0 0 0s0 0 0 0 0 0 0 0 0 0 0 0 0 0 0 0 0 0 0 0 0 0 0 0 0 0 0 0 0 0 0 0 0 0 0 0 0 0 0 0c-10.24 0-15.36-5.12-20.48-10.24l-148.48-143.36c-20.48-20.48-20.48-51.2 0-66.56v0c20.48-20.48 51.2-20.48 66.56 0l56.32 56.32v-281.6c0-25.6 20.48-46.080 46.080-46.080v0c25.6 0 46.080 20.48 46.080 46.080v399.36c0 0 0 0 0 0 5.12 10.24 0 20.48-10.24 30.72zM665.6 135.68v0c10.24-10.24 20.48-15.36 35.84-15.36 0 0 0 0 0 0v0c0 0 0 0 0 0s0 0 0 0 0 0 0 0 0 0 0 0 0 0 0 0 0 0 0 0 0 0 0 0 0 0 0 0 0 0 0 0 0 0 0 0 0 0 0 0c10.24 0 15.36 5.12 20.48 10.24l138.24 138.24c20.48 20.48 20.48 51.2 0 66.56v0c-20.48 20.48-51.2 20.48-66.56 0l-56.32-56.32v286.72c0 25.6-20.48 46.080-46.080 46.080v0c-25.6 0-46.080-20.48-46.080-46.080v-394.24c0 0 0 0 0 0 5.12-15.36 10.24-30.72 20.48-35.84zM399.36 120.32h-209.92c-25.6 0-46.080 20.48-46.080 46.080v0c0 25.6 20.48 46.080 46.080 46.080h215.040c25.6 0 46.080-20.48 46.080-46.080v0c0-25.6-20.48-46.080-51.2-46.080z" />
<glyph unicode="&#xe928;" glyph-name="set-paas" d="M761.6 627.2h-595.2c-25.6 0-38.4 19.2-38.4 38.4v57.6c0 19.2 19.2 38.4 38.4 38.4h595.2v-134.4zM742.4 518.4v345.6c0 25.6 19.2 38.4 38.4 25.6l249.6-172.8c19.2-12.8 19.2-38.4 0-51.2l-249.6-172.8c-19.2-12.8-38.4 0-38.4 25.6zM64 627.2h-44.8c-12.8 0-19.2 12.8-19.2 19.2v83.2c0 12.8 6.4 19.2 19.2 19.2h44.8c12.8 0 19.2-6.4 19.2-19.2v-83.2c0-6.4-12.8-19.2-19.2-19.2zM281.6 134.4h588.8c19.2 0 38.4 19.2 38.4 38.4v51.2c0 19.2-19.2 38.4-38.4 38.4h-588.8v-128zM300.8 25.6v345.6c0 25.6-19.2 38.4-38.4 25.6l-249.6-172.8c-19.2-12.8-19.2-38.4 0-51.2l249.6-172.8c19.2-12.8 38.4 0 38.4 25.6zM985.6 134.4h32c12.8 0 25.6 12.8 25.6 25.6v76.8c0 12.8-12.8 25.6-25.6 25.6h-32c-12.8 0-25.6-12.8-25.6-25.6v-76.8c0-12.8 12.8-25.6 25.6-25.6z" />
<glyph unicode="&#xe929;" glyph-name="set-paas-hover" d="M761.6 627.2h-595.2c-25.6 0-38.4 19.2-38.4 38.4v57.6c0 19.2 19.2 38.4 38.4 38.4h595.2v-134.4zM742.4 518.4v345.6c0 25.6 19.2 38.4 38.4 25.6l249.6-172.8c19.2-12.8 19.2-38.4 0-51.2l-249.6-172.8c-19.2-12.8-38.4 0-38.4 25.6zM64 627.2h-44.8c-12.8 0-19.2 12.8-19.2 19.2v83.2c0 12.8 6.4 19.2 19.2 19.2h44.8c12.8 0 19.2-6.4 19.2-19.2v-83.2c0-6.4-12.8-19.2-19.2-19.2zM281.6 134.4h588.8c19.2 0 38.4 19.2 38.4 38.4v51.2c0 19.2-19.2 38.4-38.4 38.4h-588.8v-128zM300.8 25.6v345.6c0 25.6-19.2 38.4-38.4 25.6l-249.6-172.8c-19.2-12.8-19.2-38.4 0-51.2l249.6-172.8c19.2-12.8 38.4 0 38.4 25.6zM985.6 134.4h32c12.8 0 25.6 12.8 25.6 25.6v76.8c0 12.8-12.8 25.6-25.6 25.6h-32c-12.8 0-25.6-12.8-25.6-25.6v-76.8c0-12.8 12.8-25.6 25.6-25.6z" />
<glyph unicode="&#xe92a;" glyph-name="set-auth" horiz-adv-x="995" d="M965.486 148.114c-21.943 51.2-51.2 102.4-87.771 146.286-14.629 14.629-36.571 14.629-51.2 7.314-14.629-14.629-14.629-36.571-7.314-51.2 58.514-65.829 95.086-153.6 102.4-241.371h-848.457c21.943 219.429 197.486 387.657 424.229 387.657 21.943 0 43.886 0 65.829-7.314 21.943 0 36.571 7.314 43.886 29.257 36.571 14.629 65.829 36.571 95.086 58.514 51.2 51.2 80.457 124.343 80.457 197.486s-29.257 146.286-80.457 197.486-131.657 87.771-204.8 87.771-146.286-29.257-197.486-80.457-87.771-124.343-87.771-197.486 29.257-146.286 80.457-197.486c21.943-14.629 29.257-29.257 51.2-36.571-14.629-7.314-29.257-14.629-43.886-14.629-58.514-29.257-109.714-65.829-153.6-109.714s-80.457-95.086-109.714-153.6c-21.943-65.829-36.571-131.657-36.571-197.486 0-21.943 14.629-36.571 36.571-36.571h921.6c21.943 0 36.571 14.629 36.571 36.571 0 58.514-14.629 117.029-29.257 175.543zM285.257 682.057c0 109.714 95.086 204.8 212.114 204.8s212.114-95.086 212.114-212.114-95.086-204.8-212.114-204.8-212.114 95.086-212.114 212.114zM694.857 411.429l-263.314-263.314-109.714 109.714c-14.629 14.629-43.886 14.629-65.829 0v0c-14.629-14.629-14.629-43.886 0-65.829l138.971-138.971c14.629-14.629 43.886-14.629 65.829 0v0l292.571 292.571c14.629 14.629 14.629 43.886 0 65.829v0c-7.314 14.629-36.571 14.629-58.514 0z" />
<glyph unicode="&#xe92b;" glyph-name="set-auth-hover" horiz-adv-x="995" d="M965.486 148.114c-21.943 51.2-51.2 102.4-87.771 146.286-14.629 14.629-36.571 14.629-51.2 7.314-14.629-14.629-14.629-36.571-7.314-51.2 58.514-65.829 95.086-153.6 102.4-241.371h-848.457c21.943 219.429 197.486 387.657 424.229 387.657 21.943 0 43.886 0 65.829-7.314 21.943 0 36.571 7.314 43.886 29.257 36.571 14.629 65.829 36.571 95.086 58.514 51.2 51.2 80.457 124.343 80.457 197.486s-29.257 146.286-80.457 197.486-131.657 87.771-204.8 87.771-146.286-29.257-197.486-80.457-87.771-124.343-87.771-197.486 29.257-146.286 80.457-197.486c21.943-14.629 29.257-29.257 51.2-36.571-14.629-7.314-29.257-14.629-43.886-14.629-58.514-29.257-109.714-65.829-153.6-109.714s-80.457-95.086-109.714-153.6c-21.943-65.829-36.571-131.657-36.571-197.486 0-21.943 14.629-36.571 36.571-36.571h921.6c21.943 0 36.571 14.629 36.571 36.571 0 58.514-14.629 117.029-29.257 175.543zM285.257 682.057c0 109.714 95.086 204.8 212.114 204.8s212.114-95.086 212.114-212.114-95.086-204.8-212.114-204.8-212.114 95.086-212.114 212.114zM694.857 411.429l-263.314-263.314-109.714 109.714c-14.629 14.629-43.886 14.629-65.829 0v0c-14.629-14.629-14.629-43.886 0-65.829l138.971-138.971c14.629-14.629 43.886-14.629 65.829 0v0l292.571 292.571c14.629 14.629 14.629 43.886 0 65.829v0c-7.314 14.629-36.571 14.629-58.514 0z" />
<glyph unicode="&#xe92c;" glyph-name="del" d="M957.44 908.8c10.24 0 15.36-10.24 15.36-20.48v-885.76c0-10.24-10.24-20.48-20.48-20.48h-880.64c-10.24 5.12-20.48 10.24-20.48 20.48v885.76c0 10.24 10.24 20.48 20.48 20.48h885.76zM957.44 960h-885.76c-40.96 0-71.68-30.72-71.68-71.68v-885.76c0-35.84 30.72-66.56 71.68-66.56h885.76c40.96 0 71.68 30.72 71.68 71.68v880.64c-5.12 40.96-35.84 71.68-71.68 71.68v0zM762.88 642.56h-501.76c-20.48 0-35.84-15.36-35.84-35.84v-522.24c0-20.48 15.36-35.84 35.84-35.84h501.76c20.48 0 35.84 15.36 35.84 35.84v522.24c5.12 20.48-15.36 35.84-35.84 35.84zM419.84 176.64c0-30.72-25.6-51.2-51.2-51.2h-10.24c-30.72 0-51.2 25.6-51.2 51.2v337.92c0 30.72 25.6 51.2 51.2 51.2h10.24c30.72 0 51.2-25.6 51.2-51.2v-337.92zM568.32 156.16c0-30.72-25.6-51.2-51.2-51.2h-10.24c-30.72 0-51.2 25.6-51.2 51.2v378.88c0 30.72 25.6 51.2 51.2 51.2h10.24c30.72 0 51.2-25.6 51.2-51.2v-378.88zM721.92 176.64c0-30.72-25.6-51.2-51.2-51.2h-10.24c-30.72 0-51.2 25.6-51.2 51.2v337.92c0 30.72 25.6 51.2 51.2 51.2h5.12c30.72 0 51.2-25.6 51.2-51.2v-337.92zM762.88 775.68h-184.32v20.48c0 25.6-20.48 51.2-51.2 51.2h-30.72c-25.6 0-51.2-20.48-51.2-51.2v-20.48h-184.32c-46.080 0-81.92-35.84-81.92-81.92v-20.48h670.72v20.48c0 46.080-40.96 81.92-87.040 81.92z" />
<glyph unicode="&#xe92d;" glyph-name="del-hover" d="M957.44 908.8c10.24 0 15.36-10.24 15.36-20.48v-885.76c0-10.24-10.24-20.48-20.48-20.48h-880.64c-10.24 5.12-20.48 10.24-20.48 20.48v885.76c0 10.24 10.24 20.48 20.48 20.48h885.76zM957.44 960h-885.76c-40.96 0-71.68-30.72-71.68-71.68v-885.76c0-35.84 30.72-66.56 71.68-66.56h885.76c40.96 0 71.68 30.72 71.68 71.68v880.64c-5.12 40.96-35.84 71.68-71.68 71.68v0zM762.88 642.56h-501.76c-20.48 0-35.84-15.36-35.84-35.84v-522.24c0-20.48 15.36-35.84 35.84-35.84h501.76c20.48 0 35.84 15.36 35.84 35.84v522.24c5.12 20.48-15.36 35.84-35.84 35.84zM419.84 176.64c0-30.72-25.6-51.2-51.2-51.2h-10.24c-30.72 0-51.2 25.6-51.2 51.2v337.92c0 30.72 25.6 51.2 51.2 51.2h10.24c30.72 0 51.2-25.6 51.2-51.2v-337.92zM568.32 156.16c0-30.72-25.6-51.2-51.2-51.2h-10.24c-30.72 0-51.2 25.6-51.2 51.2v378.88c0 30.72 25.6 51.2 51.2 51.2h10.24c30.72 0 51.2-25.6 51.2-51.2v-378.88zM721.92 176.64c0-30.72-25.6-51.2-51.2-51.2h-10.24c-30.72 0-51.2 25.6-51.2 51.2v337.92c0 30.72 25.6 51.2 51.2 51.2h5.12c30.72 0 51.2-25.6 51.2-51.2v-337.92zM762.88 775.68h-184.32v20.48c0 25.6-20.48 51.2-51.2 51.2h-30.72c-25.6 0-51.2-20.48-51.2-51.2v-20.48h-184.32c-46.080 0-81.92-35.84-81.92-81.92v-20.48h670.72v20.48c0 46.080-40.96 81.92-87.040 81.92z" />
<glyph unicode="&#xe92e;" glyph-name="set-quit" d="M552.96 130.56h-312.32c-61.44 0-112.64 56.32-112.64 128v378.88c0 71.68 51.2 128 112.64 128h547.84c61.44 0 112.64-56.32 112.64-128v-230.4c0-25.6-20.48-46.080-40.96-46.080s-40.96 20.48-40.96 46.080v230.4c0 20.48-15.36 35.84-35.84 35.84h-542.72c-20.48 0-35.84-15.36-35.84-35.84v-378.88c0-20.48 15.36-35.84 35.84-35.84h312.32c20.48 0 40.96-20.48 40.96-46.080s-20.48-46.080-40.96-46.080zM532.48 309.76l-112.64 66.56c0 0-5.12 5.12-5.12 5.12v15.36c30.72 10.24 51.2 35.84 51.2 71.68v20.48c5.12 0 5.12 5.12 5.12 5.12v10.24c0 5.12-5.12 5.12-5.12 5.12v25.6c0 40.96-30.72 71.68-71.68 71.68v0c-40.96 0-71.68-30.72-71.68-71.68v-25.6c-5.12 0-5.12-5.12-5.12-5.12v-10.24c0-5.12 5.12-5.12 5.12-5.12v-25.6c0-30.72 20.48-61.44 51.2-71.68v-10.24c0-5.12 0-5.12-5.12-5.12l-112.64-66.56c0 0-5.12-5.12-5.12-5.12v-15.36c0-5.12 5.12-5.12 5.12-5.12h276.48c5.12 0 5.12 5.12 5.12 5.12v15.36c0 0 0 5.12-5.12 5.12zM737.28 514.56h-153.6c-25.6 0-46.080 20.48-46.080 46.080v0c0 25.6 20.48 46.080 46.080 46.080h153.6c25.6 0 46.080-20.48 46.080-46.080v0c0-25.6-20.48-46.080-46.080-46.080zM675.84 366.080h-92.16c-25.6 0-46.080 20.48-46.080 46.080v0c0 25.6 20.48 46.080 46.080 46.080h92.16c25.6 0 46.080-20.48 46.080-46.080v0c0-25.6-20.48-46.080-46.080-46.080zM880.64 263.68l-128-128c-10.24-10.24-25.6-10.24-35.84 0v0c-10.24 10.24-10.24 25.6 0 35.84l128 128c10.24 10.24 25.6 10.24 35.84 0v0c10.24-10.24 10.24-25.6 0-35.84zM752.64 299.52l128-128c10.24-10.24 10.24-25.6 0-35.84v0c-10.24-10.24-25.6-10.24-35.84 0l-128 128c-10.24 10.24-10.24 25.6 0 35.84v0c10.24 10.24 25.6 10.24 35.84 0zM957.44 908.8c10.24 0 15.36-10.24 15.36-20.48v-885.76c0-10.24-10.24-20.48-20.48-20.48h-880.64c-10.24 5.12-20.48 10.24-20.48 20.48v885.76c0 10.24 10.24 20.48 20.48 20.48h885.76zM957.44 960h-885.76c-40.96 0-71.68-30.72-71.68-71.68v-885.76c0-35.84 30.72-66.56 71.68-66.56h885.76c40.96 0 71.68 30.72 71.68 71.68v880.64c-5.12 40.96-35.84 71.68-71.68 71.68v0z" />
<glyph unicode="&#xe92f;" glyph-name="set-quit-hover" d="M552.96 130.56h-312.32c-61.44 0-112.64 56.32-112.64 128v378.88c0 71.68 51.2 128 112.64 128h547.84c61.44 0 112.64-56.32 112.64-128v-230.4c0-25.6-20.48-46.080-40.96-46.080s-40.96 20.48-40.96 46.080v230.4c0 20.48-15.36 35.84-35.84 35.84h-542.72c-20.48 0-35.84-15.36-35.84-35.84v-378.88c0-20.48 15.36-35.84 35.84-35.84h312.32c20.48 0 40.96-20.48 40.96-46.080s-20.48-46.080-40.96-46.080zM532.48 309.76l-112.64 66.56c0 0-5.12 5.12-5.12 5.12v15.36c30.72 10.24 51.2 35.84 51.2 71.68v20.48c5.12 0 5.12 5.12 5.12 5.12v10.24c0 5.12-5.12 5.12-5.12 5.12v25.6c0 40.96-30.72 71.68-71.68 71.68v0c-40.96 0-71.68-30.72-71.68-71.68v-25.6c-5.12 0-5.12-5.12-5.12-5.12v-10.24c0-5.12 5.12-5.12 5.12-5.12v-25.6c0-30.72 20.48-61.44 51.2-71.68v-10.24c0-5.12 0-5.12-5.12-5.12l-112.64-66.56c0 0-5.12-5.12-5.12-5.12v-15.36c0-5.12 5.12-5.12 5.12-5.12h276.48c5.12 0 5.12 5.12 5.12 5.12v15.36c0 0 0 5.12-5.12 5.12zM737.28 514.56h-153.6c-25.6 0-46.080 20.48-46.080 46.080v0c0 25.6 20.48 46.080 46.080 46.080h153.6c25.6 0 46.080-20.48 46.080-46.080v0c0-25.6-20.48-46.080-46.080-46.080zM675.84 366.080h-92.16c-25.6 0-46.080 20.48-46.080 46.080v0c0 25.6 20.48 46.080 46.080 46.080h92.16c25.6 0 46.080-20.48 46.080-46.080v0c0-25.6-20.48-46.080-46.080-46.080zM880.64 263.68l-128-128c-10.24-10.24-25.6-10.24-35.84 0v0c-10.24 10.24-10.24 25.6 0 35.84l128 128c10.24 10.24 25.6 10.24 35.84 0v0c10.24-10.24 10.24-25.6 0-35.84zM752.64 299.52l128-128c10.24-10.24 10.24-25.6 0-35.84v0c-10.24-10.24-25.6-10.24-35.84 0l-128 128c-10.24 10.24-10.24 25.6 0 35.84v0c10.24 10.24 25.6 10.24 35.84 0zM957.44 908.8c10.24 0 15.36-10.24 15.36-20.48v-885.76c0-10.24-10.24-20.48-20.48-20.48h-880.64c-10.24 5.12-20.48 10.24-20.48 20.48v885.76c0 10.24 10.24 20.48 20.48 20.48h885.76zM957.44 960h-885.76c-40.96 0-71.68-30.72-71.68-71.68v-885.76c0-35.84 30.72-66.56 71.68-66.56h885.76c40.96 0 71.68 30.72 71.68 71.68v880.64c-5.12 40.96-35.84 71.68-71.68 71.68v0z" />
<glyph unicode="&#xe930;" glyph-name="maintenan" d="M957.44 908.8c10.24 0 15.36-10.24 15.36-20.48v-885.76c0-10.24-10.24-20.48-20.48-20.48h-880.64c-10.24 5.12-20.48 10.24-20.48 20.48v885.76c0 10.24 10.24 20.48 20.48 20.48h885.76zM957.44 960h-885.76c-40.96 0-71.68-30.72-71.68-71.68v-885.76c0-35.84 30.72-66.56 71.68-66.56h885.76c40.96 0 71.68 30.72 71.68 71.68v880.64c-5.12 40.96-35.84 71.68-71.68 71.68v0zM547.84 53.76h-71.68c-25.6 0-46.080 20.48-46.080 46.080v46.080c-25.6 5.12-46.080 15.36-66.56 25.6l-30.72-30.72c-20.48-20.48-51.2-20.48-66.56 0l-51.2 51.2c-20.48 20.48-20.48 51.2 0 66.56l25.6 35.84c-10.24 20.48-20.48 40.96-25.6 66.56h-46.080c-25.6 0-46.080 20.48-46.080 46.080v76.8c0 25.6 20.48 46.080 46.080 46.080h46.080c5.12 25.6 15.36 46.080 25.6 66.56l-30.72 30.72c-10.24 10.24-10.24 25.6-10.24 35.84 0 15.36 5.12 25.6 15.36 35.84l51.2 51.2c20.48 20.48 51.2 20.48 66.56 0l30.72-30.72c20.48 10.24 40.96 20.48 66.56 25.6v46.080c0 25.6 20.48 46.080 46.080 46.080h71.68c25.6 0 46.080-20.48 46.080-46.080v-46.080c25.6-5.12 46.080-15.36 66.56-25.6l30.72 30.72c10.24 10.24 20.48 15.36 35.84 15.36s25.6-5.12 35.84-15.36l51.2-51.2c20.48-20.48 20.48-51.2 0-66.56l-30.72-30.72c10.24-20.48 20.48-40.96 25.6-66.56h46.080c25.6 0 46.080-20.48 46.080-46.080v-71.68c0-25.6-20.48-46.080-46.080-46.080h-46.080c-5.12-25.6-15.36-46.080-25.6-66.56l30.72-30.72c20.48-20.48 20.48-51.2 0-66.56l-51.2-51.2c-20.48-20.48-51.2-20.48-66.56 0l-30.72 20.48c-20.48-10.24-40.96-20.48-66.56-25.6v-46.080c0-25.6-25.6-51.2-51.2-51.2zM486.4 115.2h51.2v56.32c0 15.36 10.24 25.6 25.6 30.72 30.72 5.12 61.44 20.48 92.16 35.84 10.24 10.24 25.6 5.12 35.84-5.12l40.96-40.96 35.84 35.84-40.96 40.96c-10.24 10.24-10.24 25.6-5.12 35.84 20.48 25.6 30.72 56.32 35.84 92.16 5.12 15.36 15.36 25.6 30.72 25.6h56.32v51.2h-56.32c-15.36 0-25.6 10.24-30.72 25.6-5.12 30.72-20.48 61.44-35.84 92.16-10.24 10.24-5.12 25.6 5.12 35.84l40.96 40.96-35.84 35.84-40.96-40.96c-10.24-15.36-25.6-15.36-40.96-10.24-25.6 20.48-56.32 30.72-92.16 35.84-15.36 5.12-25.6 15.36-25.6 30.72v61.44h-51.2v-56.32c0-15.36-10.24-25.6-25.6-30.72-25.6-10.24-56.32-20.48-81.92-40.96-10.24-5.12-25.6-5.12-35.84 5.12l-40.96 40.96-35.84-35.84 40.96-40.96c10.24-10.24 10.24-25.6 5.12-35.84-20.48-25.6-30.72-56.32-40.96-92.16 0-10.24-15.36-20.48-25.6-20.48h-61.44v-51.2h56.32c15.36 0 25.6-10.24 30.72-25.6 5.12-30.72 20.48-61.44 35.84-92.16 10.24-10.24 5.12-25.6-5.12-35.84l-40.96-40.96 35.84-35.84 40.96 40.96c10.24 10.24 25.6 10.24 35.84 5.12 25.6-20.48 56.32-30.72 92.16-35.84 15.36-5.12 25.6-15.36 25.6-30.72v-56.32zM655.36 396.8c-5.12 5.12-15.36 10.24-20.48 5.12s-10.24-15.36-5.12-20.48c10.24-15.36 20.48-35.84 20.48-56.32h-271.36c10.24 66.56 66.56 117.76 133.12 117.76 56.32 0 107.52 46.080 107.52 107.52 0 56.32-46.080 107.52-107.52 107.52s-102.4-56.32-102.4-112.64c0-35.84 15.36-66.56 40.96-87.040-61.44-25.6-107.52-87.040-107.52-153.6 0-10.24 5.12-15.36 15.36-15.36h307.2c10.24 0 15.36 5.12 15.36 15.36 0 30.72-10.24 61.44-25.6 92.16zM440.32 545.28c0 40.96 30.72 71.68 71.68 71.68s71.68-30.72 71.68-71.68c0-40.96-30.72-71.68-71.68-71.68s-71.68 30.72-71.68 71.68z" />
<glyph unicode="&#xe931;" glyph-name="maintenan-hover" d="M957.44 908.8c10.24 0 15.36-10.24 15.36-20.48v-885.76c0-10.24-10.24-20.48-20.48-20.48h-880.64c-10.24 5.12-20.48 10.24-20.48 20.48v885.76c0 10.24 10.24 20.48 20.48 20.48h885.76zM957.44 960h-885.76c-40.96 0-71.68-30.72-71.68-71.68v-885.76c0-35.84 30.72-66.56 71.68-66.56h885.76c40.96 0 71.68 30.72 71.68 71.68v880.64c-5.12 40.96-35.84 71.68-71.68 71.68v0zM547.84 53.76h-71.68c-25.6 0-46.080 20.48-46.080 46.080v46.080c-25.6 5.12-46.080 15.36-66.56 25.6l-30.72-30.72c-20.48-20.48-51.2-20.48-66.56 0l-51.2 51.2c-20.48 20.48-20.48 51.2 0 66.56l25.6 35.84c-10.24 20.48-20.48 40.96-25.6 66.56h-46.080c-25.6 0-46.080 20.48-46.080 46.080v76.8c0 25.6 20.48 46.080 46.080 46.080h46.080c5.12 25.6 15.36 46.080 25.6 66.56l-30.72 30.72c-10.24 10.24-10.24 25.6-10.24 35.84 0 15.36 5.12 25.6 15.36 35.84l51.2 51.2c20.48 20.48 51.2 20.48 66.56 0l30.72-30.72c20.48 10.24 40.96 20.48 66.56 25.6v46.080c0 25.6 20.48 46.080 46.080 46.080h71.68c25.6 0 46.080-20.48 46.080-46.080v-46.080c25.6-5.12 46.080-15.36 66.56-25.6l30.72 30.72c10.24 10.24 20.48 15.36 35.84 15.36s25.6-5.12 35.84-15.36l51.2-51.2c20.48-20.48 20.48-51.2 0-66.56l-30.72-30.72c10.24-20.48 20.48-40.96 25.6-66.56h46.080c25.6 0 46.080-20.48 46.080-46.080v-71.68c0-25.6-20.48-46.080-46.080-46.080h-46.080c-5.12-25.6-15.36-46.080-25.6-66.56l30.72-30.72c20.48-20.48 20.48-51.2 0-66.56l-51.2-51.2c-20.48-20.48-51.2-20.48-66.56 0l-30.72 20.48c-20.48-10.24-40.96-20.48-66.56-25.6v-46.080c0-25.6-25.6-51.2-51.2-51.2zM486.4 115.2h51.2v56.32c0 15.36 10.24 25.6 25.6 30.72 30.72 5.12 61.44 20.48 92.16 35.84 10.24 10.24 25.6 5.12 35.84-5.12l40.96-40.96 35.84 35.84-40.96 40.96c-10.24 10.24-10.24 25.6-5.12 35.84 20.48 25.6 30.72 56.32 35.84 92.16 5.12 15.36 15.36 25.6 30.72 25.6h56.32v51.2h-56.32c-15.36 0-25.6 10.24-30.72 25.6-5.12 30.72-20.48 61.44-35.84 92.16-10.24 10.24-5.12 25.6 5.12 35.84l40.96 40.96-35.84 35.84-40.96-40.96c-10.24-15.36-25.6-15.36-40.96-10.24-25.6 20.48-56.32 30.72-92.16 35.84-15.36 5.12-25.6 15.36-25.6 30.72v61.44h-51.2v-56.32c0-15.36-10.24-25.6-25.6-30.72-25.6-10.24-56.32-20.48-81.92-40.96-10.24-5.12-25.6-5.12-35.84 5.12l-40.96 40.96-35.84-35.84 40.96-40.96c10.24-10.24 10.24-25.6 5.12-35.84-20.48-25.6-30.72-56.32-40.96-92.16 0-10.24-15.36-20.48-25.6-20.48h-61.44v-51.2h56.32c15.36 0 25.6-10.24 30.72-25.6 5.12-30.72 20.48-61.44 35.84-92.16 10.24-10.24 5.12-25.6-5.12-35.84l-40.96-40.96 35.84-35.84 40.96 40.96c10.24 10.24 25.6 10.24 35.84 5.12 25.6-20.48 56.32-30.72 92.16-35.84 15.36-5.12 25.6-15.36 25.6-30.72v-56.32zM655.36 396.8c-5.12 5.12-15.36 10.24-20.48 5.12s-10.24-15.36-5.12-20.48c10.24-15.36 20.48-35.84 20.48-56.32h-271.36c10.24 66.56 66.56 117.76 133.12 117.76 56.32 0 107.52 46.080 107.52 107.52 0 56.32-46.080 107.52-107.52 107.52s-102.4-56.32-102.4-112.64c0-35.84 15.36-66.56 40.96-87.040-61.44-25.6-107.52-87.040-107.52-153.6 0-10.24 5.12-15.36 15.36-15.36h307.2c10.24 0 15.36 5.12 15.36 15.36 0 30.72-10.24 61.44-25.6 92.16zM440.32 545.28c0 40.96 30.72 71.68 71.68 71.68s71.68-30.72 71.68-71.68c0-40.96-30.72-71.68-71.68-71.68s-71.68 30.72-71.68 71.68z" />
<glyph unicode="&#xe932;" glyph-name="move" d="M957.44 908.8c10.24 0 15.36-10.24 15.36-20.48v-885.76c0-10.24-10.24-20.48-20.48-20.48h-880.64c-10.24 5.12-20.48 10.24-20.48 20.48v885.76c0 10.24 10.24 20.48 20.48 20.48h885.76zM957.44 960h-885.76c-40.96 0-71.68-30.72-71.68-71.68v-885.76c0-35.84 30.72-66.56 71.68-66.56h885.76c40.96 0 71.68 30.72 71.68 71.68v880.64c-5.12 40.96-35.84 71.68-71.68 71.68v0zM281.6 499.2h465.92v-107.52h-465.92v107.52zM747.52 330.24v235.52c0 5.12 5.12 15.36 5.12 20.48 10.24 10.24 25.6 10.24 35.84 0l122.88-112.64c0 0 0 0 5.12 0 15.36-10.24 15.36-35.84 0-46.080 0 0 0 0-5.12 0l-122.88-112.64c-10.24-10.24-25.6-10.24-35.84 0-5.12 0-5.12 5.12-5.12 15.36zM281.6 330.24v235.52c0 5.12-5.12 15.36-5.12 20.48-10.24 10.24-25.6 10.24-35.84 0l-128-117.76c0 0 0 0-5.12 0-15.36-10.24-15.36-35.84 0-46.080 0 0 0 0 5.12 0l122.88-112.64c10.24-10.24 25.6-10.24 35.84 0 5.12 5.12 10.24 10.24 10.24 20.48zM460.8 678.4h107.52v-465.92h-107.52v465.92zM629.76 678.4h-235.52c-5.12 0-15.36 5.12-20.48 5.12-10.24 10.24-10.24 25.6 0 35.84l112.64 122.88c0 0 0 0 0 5.12 10.24 15.36 35.84 15.36 46.080 0 0 0 0 0 0-5.12l112.64-122.88c10.24-10.24 10.24-25.6 0-35.84 0 0-5.12-5.12-15.36-5.12zM629.76 212.48h-235.52c-5.12 0-15.36-5.12-20.48-5.12-10.24-10.24-10.24-25.6 0-35.84l112.64-122.88c0 0 0 0 0-5.12 10.24-15.36 35.84-15.36 46.080 0 0 0 0 0 0 5.12l112.64 122.88c10.24 10.24 10.24 25.6 0 35.84 0 5.12-5.12 5.12-15.36 5.12z" />
<glyph unicode="&#xe933;" glyph-name="move-hover" d="M957.44 908.8c10.24 0 15.36-10.24 15.36-20.48v-885.76c0-10.24-10.24-20.48-20.48-20.48h-880.64c-10.24 5.12-20.48 10.24-20.48 20.48v885.76c0 10.24 10.24 20.48 20.48 20.48h885.76zM957.44 960h-885.76c-40.96 0-71.68-30.72-71.68-71.68v-885.76c0-35.84 30.72-66.56 71.68-66.56h885.76c40.96 0 71.68 30.72 71.68 71.68v880.64c-5.12 40.96-35.84 71.68-71.68 71.68v0zM281.6 499.2h465.92v-107.52h-465.92v107.52zM747.52 330.24v235.52c0 5.12 5.12 15.36 5.12 20.48 10.24 10.24 25.6 10.24 35.84 0l122.88-112.64c0 0 0 0 5.12 0 15.36-10.24 15.36-35.84 0-46.080 0 0 0 0-5.12 0l-122.88-112.64c-10.24-10.24-25.6-10.24-35.84 0-5.12 0-5.12 5.12-5.12 15.36zM281.6 330.24v235.52c0 5.12-5.12 15.36-5.12 20.48-10.24 10.24-25.6 10.24-35.84 0l-128-117.76c0 0 0 0-5.12 0-15.36-10.24-15.36-35.84 0-46.080 0 0 0 0 5.12 0l122.88-112.64c10.24-10.24 25.6-10.24 35.84 0 5.12 5.12 10.24 10.24 10.24 20.48zM460.8 678.4h107.52v-465.92h-107.52v465.92zM629.76 678.4h-235.52c-5.12 0-15.36 5.12-20.48 5.12-10.24 10.24-10.24 25.6 0 35.84l112.64 122.88c0 0 0 0 0 5.12 10.24 15.36 35.84 15.36 46.080 0 0 0 0 0 0-5.12l112.64-122.88c10.24-10.24 10.24-25.6 0-35.84 0 0-5.12-5.12-15.36-5.12zM629.76 212.48h-235.52c-5.12 0-15.36-5.12-20.48-5.12-10.24-10.24-10.24-25.6 0-35.84l112.64-122.88c0 0 0 0 0-5.12 10.24-15.36 35.84-15.36 46.080 0 0 0 0 0 0 5.12l112.64 122.88c10.24 10.24 10.24 25.6 0 35.84 0 5.12-5.12 5.12-15.36 5.12z" />
<glyph unicode="&#xe934;" glyph-name="group" d="M680.659 700.988c0-126.415-102.479-228.894-228.894-228.894s-228.894 102.479-228.894 228.894c0 126.415 102.479 228.894 228.894 228.894s228.894-102.479 228.894-228.894zM451.765 423.906c-246.965 0-451.765-198.776-451.765-445.741h903.529c0 246.965-204.8 445.741-451.765 445.741zM602.353 905.788c-6.024 0-12.047 0-18.071 0 72.282-42.165 120.471-120.471 120.471-204.8s-48.188-162.635-120.471-204.8c6.024 0 12.047 0 18.071 0 114.447 0 210.824 96.376 210.824 210.824-6.024 102.4-96.376 198.776-210.824 198.776zM927.624-3.765h90.353c0 222.871-180.706 409.6-403.576 415.624 174.682-60.235 307.2-222.871 313.224-415.624z" />
<glyph unicode="&#xe935;" glyph-name="group-hover" d="M680.659 700.988c0-126.415-102.479-228.894-228.894-228.894s-228.894 102.479-228.894 228.894c0 126.415 102.479 228.894 228.894 228.894s228.894-102.479 228.894-228.894zM451.765 423.906c-246.965 0-451.765-198.776-451.765-445.741h903.529c0 246.965-204.8 445.741-451.765 445.741zM602.353 905.788c-6.024 0-12.047 0-18.071 0 72.282-42.165 120.471-120.471 120.471-204.8s-48.188-162.635-120.471-204.8c6.024 0 12.047 0 18.071 0 114.447 0 210.824 96.376 210.824 210.824-6.024 102.4-96.376 198.776-210.824 198.776zM927.624-3.765h90.353c0 222.871-180.706 409.6-403.576 415.624 174.682-60.235 307.2-222.871 313.224-415.624z" />
<glyph unicode="&#xe936;" glyph-name="round" d="M372.364 727.273c-204.8 0-372.364-167.564-372.364-372.364s167.564-372.364 372.364-372.364c204.8 0 372.364 167.564 372.364 372.364s-167.564 372.364-372.364 372.364zM651.636 913.455c-93.091 0-186.182-37.236-251.345-93.091 242.036-18.618 437.527-223.418 437.527-465.455 0-55.855-9.309-102.4-27.927-148.945 130.327 55.855 214.109 186.182 214.109 335.127 0 204.8-167.564 372.364-372.364 372.364z" />
<glyph unicode="&#xe937;" glyph-name="three-b" d="M460.8 204.8l-448 460.8c-25.6 12.8-12.8 38.4 12.8 38.4h921.6c25.6 0 25.6-25.6 12.8-38.4l-460.8-460.8c-12.8 0-25.6 0-38.4 0z" />
<glyph unicode="&#xe938;" glyph-name="three-r" d="M755.2 460.8l-473.6-486.4c-12.8-12.8-25.6 0-25.6 0v972.8c0 12.8 12.8 12.8 25.6 12.8l486.4-486.4c0 0 0-12.8-12.8-12.8z" />
<glyph unicode="&#xe939;" glyph-name="reset" d="M957.44 908.8c10.24 0 15.36-10.24 15.36-20.48v-885.76c0-10.24-10.24-20.48-20.48-20.48h-880.64c-10.24 5.12-20.48 10.24-20.48 20.48v885.76c0 10.24 10.24 20.48 20.48 20.48h885.76zM957.44 960h-885.76c-40.96 0-71.68-30.72-71.68-71.68v-885.76c0-35.84 30.72-66.56 71.68-66.56h885.76c40.96 0 71.68 30.72 71.68 71.68v880.64c-5.12 40.96-35.84 71.68-71.68 71.68v0zM512 58.88c-102.4 0-199.68 40.96-271.36 112.64s-112.64 168.96-112.64 271.36 40.96 199.68 112.64 271.36c76.8 66.56 168.96 107.52 271.36 107.52 66.56 0 133.12-20.48 194.56-51.2 20.48-15.36 25.6-40.96 15.36-66.56-10.24-20.48-40.96-30.72-61.44-15.36-46.080 25.6-97.28 40.96-148.48 40.96-158.72 0-291.84-133.12-291.84-291.84s133.12-291.84 291.84-291.84 291.84 133.12 291.84 291.84c0 25.6 20.48 46.080 46.080 46.080s46.080-20.48 46.080-46.080c0-102.4-40.96-199.68-112.64-271.36-71.68-66.56-168.96-107.52-271.36-107.52zM629.76 642.56l102.4 179.2c10.24 15.36 30.72 15.36 40.96 0l102.4-179.2c10.24-15.36 0-35.84-20.48-35.84h-209.92c-10.24 0-20.48 20.48-15.36 35.84zM645.12 473.6v71.68c0 56.32-46.080 102.4-102.4 102.4h-61.44c-56.32 0-102.4-46.080-102.4-102.4v-71.68c-30.72 0-51.2-25.6-51.2-56.32v-143.36c0-30.72 25.6-56.32 56.32-56.32h256c30.72 0 56.32 25.6 56.32 56.32v143.36c0 30.72-20.48 56.32-51.2 56.32zM532.48 320v-10.24c0-10.24-5.12-15.36-15.36-15.36s-15.36 5.12-15.36 15.36v10.24c-15.36 5.12-25.6 20.48-25.6 35.84 0 20.48 20.48 40.96 40.96 40.96s40.96-20.48 40.96-40.96c-5.12-15.36-15.36-30.72-25.6-35.84zM573.44 473.6h-122.88v71.68c0 15.36 15.36 30.72 30.72 30.72h61.44c15.36 0 30.72-15.36 30.72-30.72v-71.68z" />
<glyph unicode="&#xe93a;" glyph-name="reset-hover" d="M957.44 908.8c10.24 0 15.36-10.24 15.36-20.48v-885.76c0-10.24-10.24-20.48-20.48-20.48h-880.64c-10.24 5.12-20.48 10.24-20.48 20.48v885.76c0 10.24 10.24 20.48 20.48 20.48h885.76zM957.44 960h-885.76c-40.96 0-71.68-30.72-71.68-71.68v-885.76c0-35.84 30.72-66.56 71.68-66.56h885.76c40.96 0 71.68 30.72 71.68 71.68v880.64c-5.12 40.96-35.84 71.68-71.68 71.68v0zM512 58.88c-102.4 0-199.68 40.96-271.36 112.64s-112.64 168.96-112.64 271.36 40.96 199.68 112.64 271.36c76.8 66.56 168.96 107.52 271.36 107.52 66.56 0 133.12-20.48 194.56-51.2 20.48-15.36 25.6-40.96 15.36-66.56-10.24-20.48-40.96-30.72-61.44-15.36-46.080 25.6-97.28 40.96-148.48 40.96-158.72 0-291.84-133.12-291.84-291.84s133.12-291.84 291.84-291.84 291.84 133.12 291.84 291.84c0 25.6 20.48 46.080 46.080 46.080s46.080-20.48 46.080-46.080c0-102.4-40.96-199.68-112.64-271.36-71.68-66.56-168.96-107.52-271.36-107.52zM629.76 642.56l102.4 179.2c10.24 15.36 30.72 15.36 40.96 0l102.4-179.2c10.24-15.36 0-35.84-20.48-35.84h-209.92c-10.24 0-20.48 20.48-15.36 35.84zM645.12 473.6v71.68c0 56.32-46.080 102.4-102.4 102.4h-61.44c-56.32 0-102.4-46.080-102.4-102.4v-71.68c-30.72 0-51.2-25.6-51.2-56.32v-143.36c0-30.72 25.6-56.32 56.32-56.32h256c30.72 0 56.32 25.6 56.32 56.32v143.36c0 30.72-20.48 56.32-51.2 56.32zM532.48 320v-10.24c0-10.24-5.12-15.36-15.36-15.36s-15.36 5.12-15.36 15.36v10.24c-15.36 5.12-25.6 20.48-25.6 35.84 0 20.48 20.48 40.96 40.96 40.96s40.96-20.48 40.96-40.96c-5.12-15.36-15.36-30.72-25.6-35.84zM573.44 473.6h-122.88v71.68c0 15.36 15.36 30.72 30.72 30.72h61.44c15.36 0 30.72-15.36 30.72-30.72v-71.68z" />
</font>
</defs>
</svg>
